<mxfile host="app.diagrams.net" modified="2024-03-03T09:30:59.212Z" agent="Mozilla/5.0 (Windows NT 10.0; Win64; x64) AppleWebKit/537.36 (KHTML, like Gecko) Chrome/122.0.0.0 Safari/537.36" etag="Blc-mkWtS49bqZUV11ce" version="24.0.0" type="google">
  <diagram name="Page-1" id="l53cmvgM6I4UgKYoTVOe">
    <mxGraphModel grid="1" page="1" gridSize="10" guides="1" tooltips="1" connect="1" arrows="1" fold="1" pageScale="1" pageWidth="850" pageHeight="1100" math="0" shadow="0">
      <root>
        <mxCell id="0" />
        <mxCell id="1" parent="0" />
        <mxCell id="59IasX3adQ8Y-ad1ousX-1" value="Kami menyatakan bahwa Tugas Kelompok ini kami kerjakan dengan usaha kami sendiri.&lt;br&gt;Kami tidak menyalin jawaban dari sumber manapun. Kami bertanggung jawab menjaga&lt;br&gt;agar jawaban Tugas Kelompok kami tidak disalin oleh peserta kelompok lainnya.&lt;div&gt;&lt;br&gt;&lt;/div&gt;" style="text;html=1;align=center;verticalAlign=middle;resizable=0;points=[];autosize=1;strokeColor=none;fillColor=none;" vertex="1" parent="1">
          <mxGeometry x="30" y="28" width="490" height="70" as="geometry" />
        </mxCell>
        <mxCell id="59IasX3adQ8Y-ad1ousX-2" value="" style="childLayout=tableLayout;recursiveResize=0;shadow=0;fillColor=none;" vertex="1" parent="1">
          <mxGeometry x="1040" y="20" width="435" height="250" as="geometry" />
        </mxCell>
        <mxCell id="59IasX3adQ8Y-ad1ousX-33" style="shape=tableRow;horizontal=0;startSize=0;swimlaneHead=0;swimlaneBody=0;top=0;left=0;bottom=0;right=0;dropTarget=0;collapsible=0;recursiveResize=0;expand=0;fontStyle=0;fillColor=none;strokeColor=inherit;" vertex="1" parent="59IasX3adQ8Y-ad1ousX-2">
          <mxGeometry width="435" height="32" as="geometry" />
        </mxCell>
        <mxCell id="59IasX3adQ8Y-ad1ousX-34" value="No" style="connectable=0;recursiveResize=0;strokeColor=inherit;fillColor=none;align=center;whiteSpace=wrap;html=1;rowspan=2;colspan=1;" vertex="1" parent="59IasX3adQ8Y-ad1ousX-33">
          <mxGeometry width="32" height="53" as="geometry">
            <mxRectangle width="32" height="32" as="alternateBounds" />
          </mxGeometry>
        </mxCell>
        <mxCell id="59IasX3adQ8Y-ad1ousX-35" value="NPM" style="connectable=0;recursiveResize=0;strokeColor=inherit;fillColor=none;align=center;whiteSpace=wrap;html=1;rowspan=2;colspan=1;" vertex="1" parent="59IasX3adQ8Y-ad1ousX-33">
          <mxGeometry x="32" width="88" height="53" as="geometry">
            <mxRectangle width="88" height="32" as="alternateBounds" />
          </mxGeometry>
        </mxCell>
        <mxCell id="59IasX3adQ8Y-ad1ousX-36" value="Nama&lt;br&gt;Anggota" style="connectable=0;recursiveResize=0;strokeColor=inherit;fillColor=none;align=center;whiteSpace=wrap;html=1;rowspan=2;colspan=1;" vertex="1" parent="59IasX3adQ8Y-ad1ousX-33">
          <mxGeometry x="120" width="80" height="53" as="geometry">
            <mxRectangle width="80" height="32" as="alternateBounds" />
          </mxGeometry>
        </mxCell>
        <mxCell id="59IasX3adQ8Y-ad1ousX-37" value="Deskripsi Tugas" style="connectable=0;recursiveResize=0;strokeColor=inherit;fillColor=none;align=center;whiteSpace=wrap;html=1;rowspan=2;colspan=1;" vertex="1" parent="59IasX3adQ8Y-ad1ousX-33">
          <mxGeometry x="200" width="115" height="53" as="geometry">
            <mxRectangle width="115" height="32" as="alternateBounds" />
          </mxGeometry>
        </mxCell>
        <mxCell id="59IasX3adQ8Y-ad1ousX-38" value="Kontribusi (0-5)" style="connectable=0;recursiveResize=0;strokeColor=inherit;fillColor=none;align=center;whiteSpace=wrap;html=1;rowspan=1;colspan=4;" vertex="1" parent="59IasX3adQ8Y-ad1ousX-33">
          <mxGeometry x="315" width="120" height="32" as="geometry">
            <mxRectangle width="30" height="32" as="alternateBounds" />
          </mxGeometry>
        </mxCell>
        <mxCell id="59IasX3adQ8Y-ad1ousX-40" style="connectable=0;recursiveResize=0;strokeColor=inherit;fillColor=none;align=center;whiteSpace=wrap;html=1;" vertex="1" visible="0" parent="59IasX3adQ8Y-ad1ousX-33">
          <mxGeometry x="345" width="31" height="32" as="geometry">
            <mxRectangle width="31" height="32" as="alternateBounds" />
          </mxGeometry>
        </mxCell>
        <mxCell id="59IasX3adQ8Y-ad1ousX-46" style="connectable=0;recursiveResize=0;strokeColor=inherit;fillColor=none;align=center;whiteSpace=wrap;html=1;" vertex="1" visible="0" parent="59IasX3adQ8Y-ad1ousX-33">
          <mxGeometry x="376" width="30" height="32" as="geometry">
            <mxRectangle width="30" height="32" as="alternateBounds" />
          </mxGeometry>
        </mxCell>
        <mxCell id="59IasX3adQ8Y-ad1ousX-52" style="connectable=0;recursiveResize=0;strokeColor=inherit;fillColor=none;align=center;whiteSpace=wrap;html=1;" vertex="1" visible="0" parent="59IasX3adQ8Y-ad1ousX-33">
          <mxGeometry x="406" width="29" height="32" as="geometry">
            <mxRectangle width="29" height="32" as="alternateBounds" />
          </mxGeometry>
        </mxCell>
        <mxCell id="59IasX3adQ8Y-ad1ousX-3" value="" style="shape=tableRow;horizontal=0;startSize=0;swimlaneHead=0;swimlaneBody=0;top=0;left=0;bottom=0;right=0;dropTarget=0;collapsible=0;recursiveResize=0;expand=0;fontStyle=0;fillColor=none;strokeColor=inherit;" vertex="1" parent="59IasX3adQ8Y-ad1ousX-2">
          <mxGeometry y="32" width="435" height="21" as="geometry" />
        </mxCell>
        <mxCell id="59IasX3adQ8Y-ad1ousX-4" value="Value 1" style="connectable=0;recursiveResize=0;strokeColor=inherit;fillColor=none;align=center;whiteSpace=wrap;html=1;" vertex="1" visible="0" parent="59IasX3adQ8Y-ad1ousX-3">
          <mxGeometry width="32" height="21" as="geometry">
            <mxRectangle width="32" height="21" as="alternateBounds" />
          </mxGeometry>
        </mxCell>
        <mxCell id="59IasX3adQ8Y-ad1ousX-5" value="Value 2" style="connectable=0;recursiveResize=0;strokeColor=inherit;fillColor=none;align=center;whiteSpace=wrap;html=1;" vertex="1" visible="0" parent="59IasX3adQ8Y-ad1ousX-3">
          <mxGeometry x="32" width="88" height="21" as="geometry">
            <mxRectangle width="88" height="21" as="alternateBounds" />
          </mxGeometry>
        </mxCell>
        <mxCell id="59IasX3adQ8Y-ad1ousX-6" value="Value 3" style="connectable=0;recursiveResize=0;strokeColor=inherit;fillColor=none;align=center;whiteSpace=wrap;html=1;" vertex="1" visible="0" parent="59IasX3adQ8Y-ad1ousX-3">
          <mxGeometry x="120" width="80" height="21" as="geometry">
            <mxRectangle width="80" height="21" as="alternateBounds" />
          </mxGeometry>
        </mxCell>
        <mxCell id="59IasX3adQ8Y-ad1ousX-15" style="connectable=0;recursiveResize=0;strokeColor=inherit;fillColor=none;align=center;whiteSpace=wrap;html=1;" vertex="1" visible="0" parent="59IasX3adQ8Y-ad1ousX-3">
          <mxGeometry x="200" width="115" height="21" as="geometry">
            <mxRectangle width="115" height="21" as="alternateBounds" />
          </mxGeometry>
        </mxCell>
        <mxCell id="59IasX3adQ8Y-ad1ousX-18" value="1" style="connectable=0;recursiveResize=0;strokeColor=inherit;fillColor=none;align=center;whiteSpace=wrap;html=1;" vertex="1" parent="59IasX3adQ8Y-ad1ousX-3">
          <mxGeometry x="315" width="30" height="21" as="geometry">
            <mxRectangle width="30" height="21" as="alternateBounds" />
          </mxGeometry>
        </mxCell>
        <mxCell id="59IasX3adQ8Y-ad1ousX-41" value="2" style="connectable=0;recursiveResize=0;strokeColor=inherit;fillColor=none;align=center;whiteSpace=wrap;html=1;" vertex="1" parent="59IasX3adQ8Y-ad1ousX-3">
          <mxGeometry x="345" width="31" height="21" as="geometry">
            <mxRectangle width="31" height="21" as="alternateBounds" />
          </mxGeometry>
        </mxCell>
        <mxCell id="59IasX3adQ8Y-ad1ousX-47" value="3" style="connectable=0;recursiveResize=0;strokeColor=inherit;fillColor=none;align=center;whiteSpace=wrap;html=1;" vertex="1" parent="59IasX3adQ8Y-ad1ousX-3">
          <mxGeometry x="376" width="30" height="21" as="geometry">
            <mxRectangle width="30" height="21" as="alternateBounds" />
          </mxGeometry>
        </mxCell>
        <mxCell id="59IasX3adQ8Y-ad1ousX-53" value="4" style="connectable=0;recursiveResize=0;strokeColor=inherit;fillColor=none;align=center;whiteSpace=wrap;html=1;" vertex="1" parent="59IasX3adQ8Y-ad1ousX-3">
          <mxGeometry x="406" width="29" height="21" as="geometry">
            <mxRectangle width="29" height="21" as="alternateBounds" />
          </mxGeometry>
        </mxCell>
        <mxCell id="59IasX3adQ8Y-ad1ousX-7" style="shape=tableRow;horizontal=0;startSize=0;swimlaneHead=0;swimlaneBody=0;top=0;left=0;bottom=0;right=0;dropTarget=0;collapsible=0;recursiveResize=0;expand=0;fontStyle=0;fillColor=none;strokeColor=inherit;" vertex="1" parent="59IasX3adQ8Y-ad1ousX-2">
          <mxGeometry y="53" width="435" height="48" as="geometry" />
        </mxCell>
        <mxCell id="59IasX3adQ8Y-ad1ousX-8" value="1" style="connectable=0;recursiveResize=0;strokeColor=inherit;fillColor=none;align=center;whiteSpace=wrap;html=1;" vertex="1" parent="59IasX3adQ8Y-ad1ousX-7">
          <mxGeometry width="32" height="48" as="geometry">
            <mxRectangle width="32" height="48" as="alternateBounds" />
          </mxGeometry>
        </mxCell>
        <mxCell id="59IasX3adQ8Y-ad1ousX-9" value="2206083691" style="connectable=0;recursiveResize=0;strokeColor=inherit;fillColor=none;align=center;whiteSpace=wrap;html=1;" vertex="1" parent="59IasX3adQ8Y-ad1ousX-7">
          <mxGeometry x="32" width="88" height="48" as="geometry">
            <mxRectangle width="88" height="48" as="alternateBounds" />
          </mxGeometry>
        </mxCell>
        <mxCell id="59IasX3adQ8Y-ad1ousX-10" value="Fari Hafizh Ramadhan" style="connectable=0;recursiveResize=0;strokeColor=inherit;fillColor=none;align=center;whiteSpace=wrap;html=1;" vertex="1" parent="59IasX3adQ8Y-ad1ousX-7">
          <mxGeometry x="120" width="80" height="48" as="geometry">
            <mxRectangle width="80" height="48" as="alternateBounds" />
          </mxGeometry>
        </mxCell>
        <mxCell id="59IasX3adQ8Y-ad1ousX-16" style="connectable=0;recursiveResize=0;strokeColor=inherit;fillColor=none;align=center;whiteSpace=wrap;html=1;" vertex="1" parent="59IasX3adQ8Y-ad1ousX-7">
          <mxGeometry x="200" width="115" height="48" as="geometry">
            <mxRectangle width="115" height="48" as="alternateBounds" />
          </mxGeometry>
        </mxCell>
        <mxCell id="59IasX3adQ8Y-ad1ousX-19" value="x" style="connectable=0;recursiveResize=0;strokeColor=inherit;fillColor=none;align=center;whiteSpace=wrap;html=1;" vertex="1" parent="59IasX3adQ8Y-ad1ousX-7">
          <mxGeometry x="315" width="30" height="48" as="geometry">
            <mxRectangle width="30" height="48" as="alternateBounds" />
          </mxGeometry>
        </mxCell>
        <mxCell id="59IasX3adQ8Y-ad1ousX-42" style="connectable=0;recursiveResize=0;strokeColor=inherit;fillColor=none;align=center;whiteSpace=wrap;html=1;" vertex="1" parent="59IasX3adQ8Y-ad1ousX-7">
          <mxGeometry x="345" width="31" height="48" as="geometry">
            <mxRectangle width="31" height="48" as="alternateBounds" />
          </mxGeometry>
        </mxCell>
        <mxCell id="59IasX3adQ8Y-ad1ousX-48" style="connectable=0;recursiveResize=0;strokeColor=inherit;fillColor=none;align=center;whiteSpace=wrap;html=1;" vertex="1" parent="59IasX3adQ8Y-ad1ousX-7">
          <mxGeometry x="376" width="30" height="48" as="geometry">
            <mxRectangle width="30" height="48" as="alternateBounds" />
          </mxGeometry>
        </mxCell>
        <mxCell id="59IasX3adQ8Y-ad1ousX-54" style="connectable=0;recursiveResize=0;strokeColor=inherit;fillColor=none;align=center;whiteSpace=wrap;html=1;" vertex="1" parent="59IasX3adQ8Y-ad1ousX-7">
          <mxGeometry x="406" width="29" height="48" as="geometry">
            <mxRectangle width="29" height="48" as="alternateBounds" />
          </mxGeometry>
        </mxCell>
        <mxCell id="59IasX3adQ8Y-ad1ousX-11" style="shape=tableRow;horizontal=0;startSize=0;swimlaneHead=0;swimlaneBody=0;top=0;left=0;bottom=0;right=0;dropTarget=0;collapsible=0;recursiveResize=0;expand=0;fontStyle=0;fillColor=none;strokeColor=inherit;" vertex="1" parent="59IasX3adQ8Y-ad1ousX-2">
          <mxGeometry y="101" width="435" height="50" as="geometry" />
        </mxCell>
        <mxCell id="59IasX3adQ8Y-ad1ousX-12" value="2" style="connectable=0;recursiveResize=0;strokeColor=inherit;fillColor=none;align=center;whiteSpace=wrap;html=1;" vertex="1" parent="59IasX3adQ8Y-ad1ousX-11">
          <mxGeometry width="32" height="50" as="geometry">
            <mxRectangle width="32" height="50" as="alternateBounds" />
          </mxGeometry>
        </mxCell>
        <mxCell id="59IasX3adQ8Y-ad1ousX-13" value="2206082234" style="connectable=0;recursiveResize=0;strokeColor=inherit;fillColor=none;align=center;whiteSpace=wrap;html=1;" vertex="1" parent="59IasX3adQ8Y-ad1ousX-11">
          <mxGeometry x="32" width="88" height="50" as="geometry">
            <mxRectangle width="88" height="50" as="alternateBounds" />
          </mxGeometry>
        </mxCell>
        <mxCell id="59IasX3adQ8Y-ad1ousX-14" value="Kezia Lasma Angelica" style="connectable=0;recursiveResize=0;strokeColor=inherit;fillColor=none;align=center;whiteSpace=wrap;html=1;" vertex="1" parent="59IasX3adQ8Y-ad1ousX-11">
          <mxGeometry x="120" width="80" height="50" as="geometry">
            <mxRectangle width="80" height="50" as="alternateBounds" />
          </mxGeometry>
        </mxCell>
        <mxCell id="59IasX3adQ8Y-ad1ousX-17" style="connectable=0;recursiveResize=0;strokeColor=inherit;fillColor=none;align=center;whiteSpace=wrap;html=1;" vertex="1" parent="59IasX3adQ8Y-ad1ousX-11">
          <mxGeometry x="200" width="115" height="50" as="geometry">
            <mxRectangle width="115" height="50" as="alternateBounds" />
          </mxGeometry>
        </mxCell>
        <mxCell id="59IasX3adQ8Y-ad1ousX-20" style="connectable=0;recursiveResize=0;strokeColor=inherit;fillColor=none;align=center;whiteSpace=wrap;html=1;" vertex="1" parent="59IasX3adQ8Y-ad1ousX-11">
          <mxGeometry x="315" width="30" height="50" as="geometry">
            <mxRectangle width="30" height="50" as="alternateBounds" />
          </mxGeometry>
        </mxCell>
        <mxCell id="59IasX3adQ8Y-ad1ousX-43" value="x" style="connectable=0;recursiveResize=0;strokeColor=inherit;fillColor=none;align=center;whiteSpace=wrap;html=1;" vertex="1" parent="59IasX3adQ8Y-ad1ousX-11">
          <mxGeometry x="345" width="31" height="50" as="geometry">
            <mxRectangle width="31" height="50" as="alternateBounds" />
          </mxGeometry>
        </mxCell>
        <mxCell id="59IasX3adQ8Y-ad1ousX-49" style="connectable=0;recursiveResize=0;strokeColor=inherit;fillColor=none;align=center;whiteSpace=wrap;html=1;" vertex="1" parent="59IasX3adQ8Y-ad1ousX-11">
          <mxGeometry x="376" width="30" height="50" as="geometry">
            <mxRectangle width="30" height="50" as="alternateBounds" />
          </mxGeometry>
        </mxCell>
        <mxCell id="59IasX3adQ8Y-ad1ousX-55" style="connectable=0;recursiveResize=0;strokeColor=inherit;fillColor=none;align=center;whiteSpace=wrap;html=1;" vertex="1" parent="59IasX3adQ8Y-ad1ousX-11">
          <mxGeometry x="406" width="29" height="50" as="geometry">
            <mxRectangle width="29" height="50" as="alternateBounds" />
          </mxGeometry>
        </mxCell>
        <mxCell id="59IasX3adQ8Y-ad1ousX-21" style="shape=tableRow;horizontal=0;startSize=0;swimlaneHead=0;swimlaneBody=0;top=0;left=0;bottom=0;right=0;dropTarget=0;collapsible=0;recursiveResize=0;expand=0;fontStyle=0;fillColor=none;strokeColor=inherit;" vertex="1" parent="59IasX3adQ8Y-ad1ousX-2">
          <mxGeometry y="151" width="435" height="49" as="geometry" />
        </mxCell>
        <mxCell id="59IasX3adQ8Y-ad1ousX-22" value="3" style="connectable=0;recursiveResize=0;strokeColor=inherit;fillColor=none;align=center;whiteSpace=wrap;html=1;" vertex="1" parent="59IasX3adQ8Y-ad1ousX-21">
          <mxGeometry width="32" height="49" as="geometry">
            <mxRectangle width="32" height="49" as="alternateBounds" />
          </mxGeometry>
        </mxCell>
        <mxCell id="59IasX3adQ8Y-ad1ousX-23" value="2206817383" style="connectable=0;recursiveResize=0;strokeColor=inherit;fillColor=none;align=center;whiteSpace=wrap;html=1;" vertex="1" parent="59IasX3adQ8Y-ad1ousX-21">
          <mxGeometry x="32" width="88" height="49" as="geometry">
            <mxRectangle width="88" height="49" as="alternateBounds" />
          </mxGeometry>
        </mxCell>
        <mxCell id="59IasX3adQ8Y-ad1ousX-24" value="Robert Benyamin" style="connectable=0;recursiveResize=0;strokeColor=inherit;fillColor=none;align=center;whiteSpace=wrap;html=1;" vertex="1" parent="59IasX3adQ8Y-ad1ousX-21">
          <mxGeometry x="120" width="80" height="49" as="geometry">
            <mxRectangle width="80" height="49" as="alternateBounds" />
          </mxGeometry>
        </mxCell>
        <mxCell id="59IasX3adQ8Y-ad1ousX-25" style="connectable=0;recursiveResize=0;strokeColor=inherit;fillColor=none;align=center;whiteSpace=wrap;html=1;" vertex="1" parent="59IasX3adQ8Y-ad1ousX-21">
          <mxGeometry x="200" width="115" height="49" as="geometry">
            <mxRectangle width="115" height="49" as="alternateBounds" />
          </mxGeometry>
        </mxCell>
        <mxCell id="59IasX3adQ8Y-ad1ousX-26" style="connectable=0;recursiveResize=0;strokeColor=inherit;fillColor=none;align=center;whiteSpace=wrap;html=1;" vertex="1" parent="59IasX3adQ8Y-ad1ousX-21">
          <mxGeometry x="315" width="30" height="49" as="geometry">
            <mxRectangle width="30" height="49" as="alternateBounds" />
          </mxGeometry>
        </mxCell>
        <mxCell id="59IasX3adQ8Y-ad1ousX-44" style="connectable=0;recursiveResize=0;strokeColor=inherit;fillColor=none;align=center;whiteSpace=wrap;html=1;" vertex="1" parent="59IasX3adQ8Y-ad1ousX-21">
          <mxGeometry x="345" width="31" height="49" as="geometry">
            <mxRectangle width="31" height="49" as="alternateBounds" />
          </mxGeometry>
        </mxCell>
        <mxCell id="59IasX3adQ8Y-ad1ousX-50" value="x" style="connectable=0;recursiveResize=0;strokeColor=inherit;fillColor=none;align=center;whiteSpace=wrap;html=1;" vertex="1" parent="59IasX3adQ8Y-ad1ousX-21">
          <mxGeometry x="376" width="30" height="49" as="geometry">
            <mxRectangle width="30" height="49" as="alternateBounds" />
          </mxGeometry>
        </mxCell>
        <mxCell id="59IasX3adQ8Y-ad1ousX-56" style="connectable=0;recursiveResize=0;strokeColor=inherit;fillColor=none;align=center;whiteSpace=wrap;html=1;" vertex="1" parent="59IasX3adQ8Y-ad1ousX-21">
          <mxGeometry x="406" width="29" height="49" as="geometry">
            <mxRectangle width="29" height="49" as="alternateBounds" />
          </mxGeometry>
        </mxCell>
        <mxCell id="59IasX3adQ8Y-ad1ousX-27" style="shape=tableRow;horizontal=0;startSize=0;swimlaneHead=0;swimlaneBody=0;top=0;left=0;bottom=0;right=0;dropTarget=0;collapsible=0;recursiveResize=0;expand=0;fontStyle=0;fillColor=none;strokeColor=inherit;" vertex="1" parent="59IasX3adQ8Y-ad1ousX-2">
          <mxGeometry y="200" width="435" height="50" as="geometry" />
        </mxCell>
        <mxCell id="59IasX3adQ8Y-ad1ousX-28" value="4" style="connectable=0;recursiveResize=0;strokeColor=inherit;fillColor=none;align=center;whiteSpace=wrap;html=1;" vertex="1" parent="59IasX3adQ8Y-ad1ousX-27">
          <mxGeometry width="32" height="50" as="geometry">
            <mxRectangle width="32" height="50" as="alternateBounds" />
          </mxGeometry>
        </mxCell>
        <mxCell id="59IasX3adQ8Y-ad1ousX-29" value="2206081673" style="connectable=0;recursiveResize=0;strokeColor=inherit;fillColor=none;align=center;whiteSpace=wrap;html=1;" vertex="1" parent="59IasX3adQ8Y-ad1ousX-27">
          <mxGeometry x="32" width="88" height="50" as="geometry">
            <mxRectangle width="88" height="50" as="alternateBounds" />
          </mxGeometry>
        </mxCell>
        <mxCell id="59IasX3adQ8Y-ad1ousX-30" value="Rachel Mathilda" style="connectable=0;recursiveResize=0;strokeColor=inherit;fillColor=none;align=center;whiteSpace=wrap;html=1;" vertex="1" parent="59IasX3adQ8Y-ad1ousX-27">
          <mxGeometry x="120" width="80" height="50" as="geometry">
            <mxRectangle width="80" height="50" as="alternateBounds" />
          </mxGeometry>
        </mxCell>
        <mxCell id="59IasX3adQ8Y-ad1ousX-31" style="connectable=0;recursiveResize=0;strokeColor=inherit;fillColor=none;align=center;whiteSpace=wrap;html=1;" vertex="1" parent="59IasX3adQ8Y-ad1ousX-27">
          <mxGeometry x="200" width="115" height="50" as="geometry">
            <mxRectangle width="115" height="50" as="alternateBounds" />
          </mxGeometry>
        </mxCell>
        <mxCell id="59IasX3adQ8Y-ad1ousX-32" style="connectable=0;recursiveResize=0;strokeColor=inherit;fillColor=none;align=center;whiteSpace=wrap;html=1;" vertex="1" parent="59IasX3adQ8Y-ad1ousX-27">
          <mxGeometry x="315" width="30" height="50" as="geometry">
            <mxRectangle width="30" height="50" as="alternateBounds" />
          </mxGeometry>
        </mxCell>
        <mxCell id="59IasX3adQ8Y-ad1ousX-45" style="connectable=0;recursiveResize=0;strokeColor=inherit;fillColor=none;align=center;whiteSpace=wrap;html=1;" vertex="1" parent="59IasX3adQ8Y-ad1ousX-27">
          <mxGeometry x="345" width="31" height="50" as="geometry">
            <mxRectangle width="31" height="50" as="alternateBounds" />
          </mxGeometry>
        </mxCell>
        <mxCell id="59IasX3adQ8Y-ad1ousX-51" style="connectable=0;recursiveResize=0;strokeColor=inherit;fillColor=none;align=center;whiteSpace=wrap;html=1;" vertex="1" parent="59IasX3adQ8Y-ad1ousX-27">
          <mxGeometry x="376" width="30" height="50" as="geometry">
            <mxRectangle width="30" height="50" as="alternateBounds" />
          </mxGeometry>
        </mxCell>
        <mxCell id="59IasX3adQ8Y-ad1ousX-57" value="x" style="connectable=0;recursiveResize=0;strokeColor=inherit;fillColor=none;align=center;whiteSpace=wrap;html=1;" vertex="1" parent="59IasX3adQ8Y-ad1ousX-27">
          <mxGeometry x="406" width="29" height="50" as="geometry">
            <mxRectangle width="29" height="50" as="alternateBounds" />
          </mxGeometry>
        </mxCell>
        <mxCell id="59IasX3adQ8Y-ad1ousX-65" style="rounded=0;orthogonalLoop=1;jettySize=auto;html=1;entryX=1;entryY=0.5;entryDx=0;entryDy=0;endArrow=none;endFill=0;" edge="1" parent="1" source="xd1dRqiQvzqtv7HBqE77-16" target="59IasX3adQ8Y-ad1ousX-59">
          <mxGeometry relative="1" as="geometry">
            <mxPoint x="612.5" y="355" as="targetPoint" />
          </mxGeometry>
        </mxCell>
        <mxCell id="59IasX3adQ8Y-ad1ousX-157" value="" style="edgeStyle=none;rounded=0;orthogonalLoop=1;jettySize=auto;html=1;strokeColor=default;align=center;verticalAlign=middle;fontFamily=Helvetica;fontSize=11;fontColor=default;labelBackgroundColor=default;endArrow=none;endFill=0;" edge="1" parent="1" source="59IasX3adQ8Y-ad1ousX-58" target="59IasX3adQ8Y-ad1ousX-155">
          <mxGeometry relative="1" as="geometry" />
        </mxCell>
        <mxCell id="59IasX3adQ8Y-ad1ousX-58" value="PENGGUNA" style="whiteSpace=wrap;html=1;align=center;" vertex="1" parent="1">
          <mxGeometry x="675" y="320" width="100" height="40" as="geometry" />
        </mxCell>
        <mxCell id="59IasX3adQ8Y-ad1ousX-82" value="" style="edgeStyle=none;rounded=0;orthogonalLoop=1;jettySize=auto;html=1;strokeColor=default;align=center;verticalAlign=middle;fontFamily=Helvetica;fontSize=11;fontColor=default;labelBackgroundColor=default;endArrow=none;endFill=0;shape=link;" edge="1" parent="1" source="59IasX3adQ8Y-ad1ousX-59" target="59IasX3adQ8Y-ad1ousX-81">
          <mxGeometry relative="1" as="geometry" />
        </mxCell>
        <mxCell id="59IasX3adQ8Y-ad1ousX-169" style="edgeStyle=none;rounded=0;orthogonalLoop=1;jettySize=auto;html=1;entryX=0.5;entryY=0;entryDx=0;entryDy=0;strokeColor=default;align=center;verticalAlign=middle;fontFamily=Helvetica;fontSize=11;fontColor=default;labelBackgroundColor=default;endArrow=none;endFill=0;" edge="1" parent="1" source="59IasX3adQ8Y-ad1ousX-59" target="59IasX3adQ8Y-ad1ousX-168">
          <mxGeometry relative="1" as="geometry" />
        </mxCell>
        <mxCell id="59IasX3adQ8Y-ad1ousX-59" value="PREMIUM" style="whiteSpace=wrap;html=1;align=center;" vertex="1" parent="1">
          <mxGeometry x="415" y="320" width="100" height="40" as="geometry" />
        </mxCell>
        <mxCell id="59IasX3adQ8Y-ad1ousX-63" value="" style="ellipse;whiteSpace=wrap;html=1;align=center;aspect=fixed;fillColor=none;strokeColor=none;resizable=0;perimeter=centerPerimeter;rotatable=0;allowArrows=0;points=[];outlineConnect=1;" vertex="1" parent="1">
          <mxGeometry x="370" y="370" width="10" height="10" as="geometry" />
        </mxCell>
        <mxCell id="59IasX3adQ8Y-ad1ousX-67" value="" style="ellipse;whiteSpace=wrap;html=1;align=center;aspect=fixed;fillColor=none;strokeColor=none;resizable=0;perimeter=centerPerimeter;rotatable=0;allowArrows=0;points=[];outlineConnect=1;" vertex="1" parent="1">
          <mxGeometry x="460" y="300" width="10" height="10" as="geometry" />
        </mxCell>
        <mxCell id="59IasX3adQ8Y-ad1ousX-80" value="PAKET" style="whiteSpace=wrap;html=1;align=center;" vertex="1" parent="1">
          <mxGeometry x="230" y="410" width="100" height="40" as="geometry" />
        </mxCell>
        <mxCell id="59IasX3adQ8Y-ad1ousX-83" value="" style="edgeStyle=none;rounded=0;orthogonalLoop=1;jettySize=auto;html=1;strokeColor=default;align=center;verticalAlign=middle;fontFamily=Helvetica;fontSize=11;fontColor=default;labelBackgroundColor=default;endArrow=none;endFill=0;" edge="1" parent="1" source="59IasX3adQ8Y-ad1ousX-81" target="59IasX3adQ8Y-ad1ousX-80">
          <mxGeometry relative="1" as="geometry" />
        </mxCell>
        <mxCell id="59IasX3adQ8Y-ad1ousX-81" value="BERLANGGANAN" style="shape=rhombus;perimeter=rhombusPerimeter;whiteSpace=wrap;html=1;align=center;fontFamily=Helvetica;fontSize=11;fontColor=default;labelBackgroundColor=default;" vertex="1" parent="1">
          <mxGeometry x="220" y="310" width="120" height="60" as="geometry" />
        </mxCell>
        <mxCell id="59IasX3adQ8Y-ad1ousX-87" style="edgeStyle=none;rounded=0;orthogonalLoop=1;jettySize=auto;html=1;strokeColor=default;align=center;verticalAlign=middle;fontFamily=Helvetica;fontSize=11;fontColor=default;labelBackgroundColor=default;endArrow=none;endFill=0;" edge="1" parent="1" source="59IasX3adQ8Y-ad1ousX-86">
          <mxGeometry relative="1" as="geometry">
            <mxPoint x="280" y="450" as="targetPoint" />
          </mxGeometry>
        </mxCell>
        <mxCell id="59IasX3adQ8Y-ad1ousX-86" value="Harga" style="ellipse;whiteSpace=wrap;html=1;align=center;fontFamily=Helvetica;fontSize=11;fontColor=default;labelBackgroundColor=default;" vertex="1" parent="1">
          <mxGeometry x="280" y="477.5" width="60" height="32.5" as="geometry" />
        </mxCell>
        <mxCell id="59IasX3adQ8Y-ad1ousX-91" style="edgeStyle=none;rounded=0;orthogonalLoop=1;jettySize=auto;html=1;entryX=0;entryY=0.5;entryDx=0;entryDy=0;strokeColor=default;align=center;verticalAlign=middle;fontFamily=Helvetica;fontSize=11;fontColor=default;labelBackgroundColor=default;endArrow=none;endFill=0;" edge="1" parent="1" source="59IasX3adQ8Y-ad1ousX-88" target="59IasX3adQ8Y-ad1ousX-81">
          <mxGeometry relative="1" as="geometry" />
        </mxCell>
        <mxCell id="59IasX3adQ8Y-ad1ousX-88" value="Tanggal_dimulai" style="ellipse;whiteSpace=wrap;html=1;align=center;fontFamily=Helvetica;fontSize=11;fontColor=default;labelBackgroundColor=default;" vertex="1" parent="1">
          <mxGeometry x="90" y="280" width="100" height="40" as="geometry" />
        </mxCell>
        <mxCell id="59IasX3adQ8Y-ad1ousX-92" style="edgeStyle=none;rounded=0;orthogonalLoop=1;jettySize=auto;html=1;strokeColor=default;align=center;verticalAlign=middle;fontFamily=Helvetica;fontSize=11;fontColor=default;labelBackgroundColor=default;endArrow=none;endFill=0;" edge="1" parent="1" source="59IasX3adQ8Y-ad1ousX-89">
          <mxGeometry relative="1" as="geometry">
            <mxPoint x="220" y="340" as="targetPoint" />
          </mxGeometry>
        </mxCell>
        <mxCell id="59IasX3adQ8Y-ad1ousX-89" value="Tanggal_berakhir" style="ellipse;whiteSpace=wrap;html=1;align=center;dashed=1;fontFamily=Helvetica;fontSize=11;fontColor=default;labelBackgroundColor=default;" vertex="1" parent="1">
          <mxGeometry x="50" y="320" width="100" height="40" as="geometry" />
        </mxCell>
        <mxCell id="59IasX3adQ8Y-ad1ousX-93" style="edgeStyle=none;rounded=0;orthogonalLoop=1;jettySize=auto;html=1;entryX=0;entryY=0.5;entryDx=0;entryDy=0;strokeColor=default;align=center;verticalAlign=middle;fontFamily=Helvetica;fontSize=11;fontColor=default;labelBackgroundColor=default;endArrow=none;endFill=0;" edge="1" parent="1" source="59IasX3adQ8Y-ad1ousX-90" target="59IasX3adQ8Y-ad1ousX-81">
          <mxGeometry relative="1" as="geometry" />
        </mxCell>
        <mxCell id="59IasX3adQ8Y-ad1ousX-90" value="Metode_pembayaran" style="ellipse;whiteSpace=wrap;html=1;align=center;fontFamily=Helvetica;fontSize=11;fontColor=default;labelBackgroundColor=default;" vertex="1" parent="1">
          <mxGeometry x="80" y="360" width="110" height="40" as="geometry" />
        </mxCell>
        <mxCell id="59IasX3adQ8Y-ad1ousX-95" style="rounded=0;orthogonalLoop=1;jettySize=auto;html=1;entryX=0;entryY=0.5;entryDx=0;entryDy=0;endArrow=none;endFill=0;exitX=1;exitY=0.5;exitDx=0;exitDy=0;" edge="1" parent="1" source="59IasX3adQ8Y-ad1ousX-58" target="59IasX3adQ8Y-ad1ousX-101">
          <mxGeometry relative="1" as="geometry">
            <mxPoint x="1013" y="370" as="sourcePoint" />
          </mxGeometry>
        </mxCell>
        <mxCell id="59IasX3adQ8Y-ad1ousX-125" style="edgeStyle=none;rounded=0;orthogonalLoop=1;jettySize=auto;html=1;entryX=0.5;entryY=0;entryDx=0;entryDy=0;strokeColor=default;align=center;verticalAlign=middle;fontFamily=Helvetica;fontSize=11;fontColor=default;labelBackgroundColor=default;endArrow=none;endFill=0;" edge="1" parent="1" source="59IasX3adQ8Y-ad1ousX-97" target="59IasX3adQ8Y-ad1ousX-123">
          <mxGeometry relative="1" as="geometry" />
        </mxCell>
        <mxCell id="59IasX3adQ8Y-ad1ousX-181" style="edgeStyle=none;rounded=0;orthogonalLoop=1;jettySize=auto;html=1;entryX=0;entryY=0.5;entryDx=0;entryDy=0;strokeColor=default;align=center;verticalAlign=middle;fontFamily=Helvetica;fontSize=11;fontColor=default;labelBackgroundColor=default;endArrow=none;endFill=0;exitX=1;exitY=0.5;exitDx=0;exitDy=0;" edge="1" parent="1" source="59IasX3adQ8Y-ad1ousX-97" target="59IasX3adQ8Y-ad1ousX-175">
          <mxGeometry relative="1" as="geometry" />
        </mxCell>
        <mxCell id="59IasX3adQ8Y-ad1ousX-97" value="ARTIS" style="whiteSpace=wrap;html=1;align=center;" vertex="1" parent="1">
          <mxGeometry x="840" y="490" width="100" height="40" as="geometry" />
        </mxCell>
        <mxCell id="59IasX3adQ8Y-ad1ousX-182" style="edgeStyle=none;rounded=0;orthogonalLoop=1;jettySize=auto;html=1;strokeColor=default;align=center;verticalAlign=middle;fontFamily=Helvetica;fontSize=11;fontColor=default;labelBackgroundColor=default;endArrow=none;endFill=0;exitX=1;exitY=0.5;exitDx=0;exitDy=0;entryX=0;entryY=0.5;entryDx=0;entryDy=0;" edge="1" parent="1" source="59IasX3adQ8Y-ad1ousX-98" target="59IasX3adQ8Y-ad1ousX-175">
          <mxGeometry relative="1" as="geometry" />
        </mxCell>
        <mxCell id="59IasX3adQ8Y-ad1ousX-98" value="SONGWRITER" style="whiteSpace=wrap;html=1;align=center;" vertex="1" parent="1">
          <mxGeometry x="1007.5" y="490" width="100" height="40" as="geometry" />
        </mxCell>
        <mxCell id="59IasX3adQ8Y-ad1ousX-99" style="rounded=0;orthogonalLoop=1;jettySize=auto;html=1;endArrow=none;endFill=0;exitX=1;exitY=0.5;exitDx=0;exitDy=0;exitPerimeter=0;entryX=0.5;entryY=0;entryDx=0;entryDy=0;" edge="1" parent="1" source="59IasX3adQ8Y-ad1ousX-103" target="59IasX3adQ8Y-ad1ousX-97">
          <mxGeometry relative="1" as="geometry" />
        </mxCell>
        <mxCell id="59IasX3adQ8Y-ad1ousX-100" style="edgeStyle=none;rounded=0;orthogonalLoop=1;jettySize=auto;html=1;strokeColor=default;align=center;verticalAlign=middle;fontFamily=Helvetica;fontSize=11;fontColor=default;labelBackgroundColor=default;endArrow=none;endFill=0;entryX=1;entryY=0.5;entryDx=0;entryDy=0;entryPerimeter=0;" edge="1" parent="1" source="59IasX3adQ8Y-ad1ousX-101" target="59IasX3adQ8Y-ad1ousX-106">
          <mxGeometry relative="1" as="geometry" />
        </mxCell>
        <mxCell id="59IasX3adQ8Y-ad1ousX-101" value="&lt;b&gt;O&lt;/b&gt;" style="shape=ellipse;html=1;dashed=0;whiteSpace=wrap;aspect=fixed;perimeter=ellipsePerimeter;" vertex="1" parent="1">
          <mxGeometry x="1045" y="327.5" width="25" height="25" as="geometry" />
        </mxCell>
        <mxCell id="59IasX3adQ8Y-ad1ousX-102" value="" style="ellipse;whiteSpace=wrap;html=1;align=center;aspect=fixed;fillColor=none;strokeColor=none;resizable=0;perimeter=centerPerimeter;rotatable=0;allowArrows=0;points=[];outlineConnect=1;" vertex="1" parent="1">
          <mxGeometry x="880" y="450" width="10" height="10" as="geometry" />
        </mxCell>
        <mxCell id="59IasX3adQ8Y-ad1ousX-103" value="" style="shape=requiredInterface;html=1;verticalLabelPosition=bottom;sketch=0;fontFamily=Helvetica;fontSize=11;fontColor=default;labelBackgroundColor=default;rotation=135;" vertex="1" parent="1">
          <mxGeometry x="970" y="410" width="10" height="20" as="geometry" />
        </mxCell>
        <mxCell id="59IasX3adQ8Y-ad1ousX-104" style="edgeStyle=none;rounded=0;orthogonalLoop=1;jettySize=auto;html=1;strokeColor=default;align=center;verticalAlign=middle;fontFamily=Helvetica;fontSize=11;fontColor=default;labelBackgroundColor=default;endArrow=none;endFill=0;exitX=1;exitY=0.5;exitDx=0;exitDy=0;exitPerimeter=0;entryX=0.5;entryY=1;entryDx=0;entryDy=0;" edge="1" parent="1" source="59IasX3adQ8Y-ad1ousX-103" target="59IasX3adQ8Y-ad1ousX-101">
          <mxGeometry relative="1" as="geometry">
            <mxPoint x="1050" y="349" as="targetPoint" />
          </mxGeometry>
        </mxCell>
        <mxCell id="59IasX3adQ8Y-ad1ousX-105" style="edgeStyle=none;rounded=0;orthogonalLoop=1;jettySize=auto;html=1;entryX=0.5;entryY=0;entryDx=0;entryDy=0;strokeColor=default;align=center;verticalAlign=middle;fontFamily=Helvetica;fontSize=11;fontColor=default;labelBackgroundColor=default;endArrow=none;endFill=0;" edge="1" parent="1" source="59IasX3adQ8Y-ad1ousX-106" target="59IasX3adQ8Y-ad1ousX-98">
          <mxGeometry relative="1" as="geometry" />
        </mxCell>
        <mxCell id="59IasX3adQ8Y-ad1ousX-106" value="" style="shape=requiredInterface;html=1;verticalLabelPosition=bottom;sketch=0;fontFamily=Helvetica;fontSize=11;fontColor=default;labelBackgroundColor=default;rotation=90;" vertex="1" parent="1">
          <mxGeometry x="1052.5" y="420" width="10" height="20" as="geometry" />
        </mxCell>
        <mxCell id="59IasX3adQ8Y-ad1ousX-107" style="rounded=0;orthogonalLoop=1;jettySize=auto;html=1;entryX=0.5;entryY=0;entryDx=0;entryDy=0;endArrow=none;endFill=0;" edge="1" parent="1" source="59IasX3adQ8Y-ad1ousX-108" target="59IasX3adQ8Y-ad1ousX-113">
          <mxGeometry relative="1" as="geometry" />
        </mxCell>
        <mxCell id="59IasX3adQ8Y-ad1ousX-108" value="KONTEN" style="whiteSpace=wrap;html=1;align=center;" vertex="1" parent="1">
          <mxGeometry x="996.4200000000001" y="790" width="100" height="40" as="geometry" />
        </mxCell>
        <mxCell id="59IasX3adQ8Y-ad1ousX-124" style="edgeStyle=none;rounded=0;orthogonalLoop=1;jettySize=auto;html=1;strokeColor=default;align=center;verticalAlign=middle;fontFamily=Helvetica;fontSize=11;fontColor=default;labelBackgroundColor=default;endArrow=none;endFill=0;shape=link;" edge="1" parent="1" source="59IasX3adQ8Y-ad1ousX-109" target="59IasX3adQ8Y-ad1ousX-123">
          <mxGeometry relative="1" as="geometry" />
        </mxCell>
        <mxCell id="59IasX3adQ8Y-ad1ousX-131" style="edgeStyle=none;rounded=0;orthogonalLoop=1;jettySize=auto;html=1;strokeColor=default;align=center;verticalAlign=middle;fontFamily=Helvetica;fontSize=11;fontColor=default;labelBackgroundColor=default;endArrow=none;endFill=0;shape=link;" edge="1" parent="1" source="59IasX3adQ8Y-ad1ousX-109" target="59IasX3adQ8Y-ad1ousX-129">
          <mxGeometry relative="1" as="geometry" />
        </mxCell>
        <mxCell id="59IasX3adQ8Y-ad1ousX-145" value="" style="edgeStyle=none;rounded=0;orthogonalLoop=1;jettySize=auto;html=1;strokeColor=default;align=center;verticalAlign=middle;fontFamily=Helvetica;fontSize=11;fontColor=default;labelBackgroundColor=default;endArrow=none;endFill=0;shape=link;" edge="1" parent="1" source="59IasX3adQ8Y-ad1ousX-109" target="59IasX3adQ8Y-ad1ousX-143">
          <mxGeometry relative="1" as="geometry" />
        </mxCell>
        <mxCell id="59IasX3adQ8Y-ad1ousX-184" style="edgeStyle=none;rounded=0;orthogonalLoop=1;jettySize=auto;html=1;entryX=0.5;entryY=0;entryDx=0;entryDy=0;strokeColor=default;align=center;verticalAlign=middle;fontFamily=Helvetica;fontSize=11;fontColor=default;labelBackgroundColor=default;endArrow=none;endFill=0;shape=link;" edge="1" parent="1" source="59IasX3adQ8Y-ad1ousX-109" target="59IasX3adQ8Y-ad1ousX-183">
          <mxGeometry relative="1" as="geometry" />
        </mxCell>
        <mxCell id="59IasX3adQ8Y-ad1ousX-109" value="LAGU" style="whiteSpace=wrap;html=1;align=center;" vertex="1" parent="1">
          <mxGeometry x="840" y="700" width="100" height="40" as="geometry" />
        </mxCell>
        <mxCell id="59IasX3adQ8Y-ad1ousX-110" value="PODCAST" style="whiteSpace=wrap;html=1;align=center;" vertex="1" parent="1">
          <mxGeometry x="1175" y="700" width="100" height="40" as="geometry" />
        </mxCell>
        <mxCell id="59IasX3adQ8Y-ad1ousX-111" style="rounded=0;orthogonalLoop=1;jettySize=auto;html=1;endArrow=none;endFill=0;exitX=1;exitY=0.5;exitDx=0;exitDy=0;exitPerimeter=0;" edge="1" parent="1" source="59IasX3adQ8Y-ad1ousX-115" target="59IasX3adQ8Y-ad1ousX-109">
          <mxGeometry relative="1" as="geometry" />
        </mxCell>
        <mxCell id="59IasX3adQ8Y-ad1ousX-112" style="edgeStyle=none;rounded=0;orthogonalLoop=1;jettySize=auto;html=1;strokeColor=default;align=center;verticalAlign=middle;fontFamily=Helvetica;fontSize=11;fontColor=default;labelBackgroundColor=default;endArrow=none;endFill=0;entryX=1;entryY=0.5;entryDx=0;entryDy=0;entryPerimeter=0;" edge="1" parent="1" source="59IasX3adQ8Y-ad1ousX-113" target="59IasX3adQ8Y-ad1ousX-118">
          <mxGeometry relative="1" as="geometry" />
        </mxCell>
        <mxCell id="59IasX3adQ8Y-ad1ousX-113" value="&lt;b&gt;d&lt;/b&gt;" style="shape=ellipse;html=1;dashed=0;whiteSpace=wrap;aspect=fixed;perimeter=ellipsePerimeter;" vertex="1" parent="1">
          <mxGeometry x="1035" y="707.5" width="25" height="25" as="geometry" />
        </mxCell>
        <mxCell id="59IasX3adQ8Y-ad1ousX-114" value="" style="ellipse;whiteSpace=wrap;html=1;align=center;aspect=fixed;fillColor=none;strokeColor=none;resizable=0;perimeter=centerPerimeter;rotatable=0;allowArrows=0;points=[];outlineConnect=1;" vertex="1" parent="1">
          <mxGeometry x="830" y="830" width="10" height="10" as="geometry" />
        </mxCell>
        <mxCell id="59IasX3adQ8Y-ad1ousX-115" value="" style="shape=requiredInterface;html=1;verticalLabelPosition=bottom;sketch=0;fontFamily=Helvetica;fontSize=11;fontColor=default;labelBackgroundColor=default;rotation=-180;" vertex="1" parent="1">
          <mxGeometry x="995" y="710" width="10" height="20" as="geometry" />
        </mxCell>
        <mxCell id="59IasX3adQ8Y-ad1ousX-117" style="edgeStyle=none;rounded=0;orthogonalLoop=1;jettySize=auto;html=1;strokeColor=default;align=center;verticalAlign=middle;fontFamily=Helvetica;fontSize=11;fontColor=default;labelBackgroundColor=default;endArrow=none;endFill=0;" edge="1" parent="1" source="59IasX3adQ8Y-ad1ousX-118" target="59IasX3adQ8Y-ad1ousX-110">
          <mxGeometry relative="1" as="geometry" />
        </mxCell>
        <mxCell id="59IasX3adQ8Y-ad1ousX-118" value="" style="shape=requiredInterface;html=1;verticalLabelPosition=bottom;sketch=0;fontFamily=Helvetica;fontSize=11;fontColor=default;labelBackgroundColor=default;rotation=0;" vertex="1" parent="1">
          <mxGeometry x="1106.42" y="710" width="10" height="20" as="geometry" />
        </mxCell>
        <mxCell id="59IasX3adQ8Y-ad1ousX-119" value="PODCASTER" style="whiteSpace=wrap;html=1;align=center;" vertex="1" parent="1">
          <mxGeometry x="1175" y="490" width="100" height="40" as="geometry" />
        </mxCell>
        <mxCell id="59IasX3adQ8Y-ad1ousX-120" style="edgeStyle=none;rounded=0;orthogonalLoop=1;jettySize=auto;html=1;entryX=0.5;entryY=0;entryDx=0;entryDy=0;strokeColor=default;align=center;verticalAlign=middle;fontFamily=Helvetica;fontSize=11;fontColor=default;labelBackgroundColor=default;endArrow=none;endFill=0;" edge="1" parent="1" source="59IasX3adQ8Y-ad1ousX-121" target="59IasX3adQ8Y-ad1ousX-119">
          <mxGeometry relative="1" as="geometry" />
        </mxCell>
        <mxCell id="59IasX3adQ8Y-ad1ousX-121" value="" style="shape=requiredInterface;html=1;verticalLabelPosition=bottom;sketch=0;fontFamily=Helvetica;fontSize=11;fontColor=default;labelBackgroundColor=default;rotation=35;" vertex="1" parent="1">
          <mxGeometry x="1130" y="410" width="10" height="20" as="geometry" />
        </mxCell>
        <mxCell id="59IasX3adQ8Y-ad1ousX-122" style="edgeStyle=none;rounded=0;orthogonalLoop=1;jettySize=auto;html=1;strokeColor=default;align=center;verticalAlign=middle;fontFamily=Helvetica;fontSize=11;fontColor=default;labelBackgroundColor=default;endArrow=none;endFill=0;exitX=0.5;exitY=1;exitDx=0;exitDy=0;entryX=1;entryY=0.5;entryDx=0;entryDy=0;entryPerimeter=0;" edge="1" parent="1" source="59IasX3adQ8Y-ad1ousX-101" target="59IasX3adQ8Y-ad1ousX-121">
          <mxGeometry relative="1" as="geometry">
            <mxPoint x="1060" y="350" as="sourcePoint" />
            <mxPoint x="1099" y="463" as="targetPoint" />
          </mxGeometry>
        </mxCell>
        <mxCell id="59IasX3adQ8Y-ad1ousX-123" value="DINYANYIKAN" style="shape=rhombus;perimeter=rhombusPerimeter;whiteSpace=wrap;html=1;align=center;fontFamily=Helvetica;fontSize=11;fontColor=default;labelBackgroundColor=default;" vertex="1" parent="1">
          <mxGeometry x="830" y="580" width="120" height="60" as="geometry" />
        </mxCell>
        <mxCell id="59IasX3adQ8Y-ad1ousX-132" style="edgeStyle=none;rounded=0;orthogonalLoop=1;jettySize=auto;html=1;strokeColor=default;align=center;verticalAlign=middle;fontFamily=Helvetica;fontSize=11;fontColor=default;labelBackgroundColor=default;endArrow=none;endFill=0;" edge="1" parent="1" source="59IasX3adQ8Y-ad1ousX-129" target="59IasX3adQ8Y-ad1ousX-98">
          <mxGeometry relative="1" as="geometry" />
        </mxCell>
        <mxCell id="59IasX3adQ8Y-ad1ousX-129" value="DITULIS" style="shape=rhombus;perimeter=rhombusPerimeter;whiteSpace=wrap;html=1;align=center;fontFamily=Helvetica;fontSize=11;fontColor=default;labelBackgroundColor=default;" vertex="1" parent="1">
          <mxGeometry x="996.4200000000001" y="580" width="120" height="60" as="geometry" />
        </mxCell>
        <mxCell id="59IasX3adQ8Y-ad1ousX-133" style="edgeStyle=none;rounded=0;orthogonalLoop=1;jettySize=auto;html=1;strokeColor=default;align=center;verticalAlign=middle;fontFamily=Helvetica;fontSize=11;fontColor=default;labelBackgroundColor=default;endArrow=none;endFill=0;shape=link;exitX=0.5;exitY=0;exitDx=0;exitDy=0;" edge="1" parent="1" source="59IasX3adQ8Y-ad1ousX-110" target="59IasX3adQ8Y-ad1ousX-134">
          <mxGeometry relative="1" as="geometry">
            <mxPoint x="1030" y="680" as="sourcePoint" />
          </mxGeometry>
        </mxCell>
        <mxCell id="59IasX3adQ8Y-ad1ousX-135" style="edgeStyle=none;rounded=0;orthogonalLoop=1;jettySize=auto;html=1;entryX=0.5;entryY=1;entryDx=0;entryDy=0;strokeColor=default;align=center;verticalAlign=middle;fontFamily=Helvetica;fontSize=11;fontColor=default;labelBackgroundColor=default;endArrow=none;endFill=0;" edge="1" parent="1" source="59IasX3adQ8Y-ad1ousX-134" target="59IasX3adQ8Y-ad1ousX-119">
          <mxGeometry relative="1" as="geometry" />
        </mxCell>
        <mxCell id="59IasX3adQ8Y-ad1ousX-134" value="DIBAWAKAN" style="shape=rhombus;perimeter=rhombusPerimeter;whiteSpace=wrap;html=1;align=center;fontFamily=Helvetica;fontSize=11;fontColor=default;labelBackgroundColor=default;" vertex="1" parent="1">
          <mxGeometry x="1165" y="580" width="120" height="60" as="geometry" />
        </mxCell>
        <mxCell id="59IasX3adQ8Y-ad1ousX-136" value="isVerified" style="ellipse;whiteSpace=wrap;html=1;align=center;fontFamily=Helvetica;fontSize=11;fontColor=default;labelBackgroundColor=default;" vertex="1" parent="1">
          <mxGeometry x="800" y="275" width="80" height="30" as="geometry" />
        </mxCell>
        <mxCell id="59IasX3adQ8Y-ad1ousX-142" value="ALBUM" style="whiteSpace=wrap;html=1;align=center;" vertex="1" parent="1">
          <mxGeometry x="500" y="700" width="100" height="40" as="geometry" />
        </mxCell>
        <mxCell id="59IasX3adQ8Y-ad1ousX-146" value="" style="edgeStyle=none;rounded=0;orthogonalLoop=1;jettySize=auto;html=1;strokeColor=default;align=center;verticalAlign=middle;fontFamily=Helvetica;fontSize=11;fontColor=default;labelBackgroundColor=default;endArrow=none;endFill=0;shape=link;" edge="1" parent="1" source="59IasX3adQ8Y-ad1ousX-143" target="59IasX3adQ8Y-ad1ousX-142">
          <mxGeometry relative="1" as="geometry" />
        </mxCell>
        <mxCell id="59IasX3adQ8Y-ad1ousX-143" value="BAGIAN_DARI" style="shape=rhombus;perimeter=rhombusPerimeter;whiteSpace=wrap;html=1;align=center;fontFamily=Helvetica;fontSize=11;fontColor=default;labelBackgroundColor=default;" vertex="1" parent="1">
          <mxGeometry x="635" y="690" width="120" height="60" as="geometry" />
        </mxCell>
        <mxCell id="59IasX3adQ8Y-ad1ousX-147" value="" style="edgeStyle=none;rounded=0;orthogonalLoop=1;jettySize=auto;html=1;strokeColor=default;align=center;verticalAlign=middle;fontFamily=Helvetica;fontSize=11;fontColor=default;labelBackgroundColor=default;endArrow=none;endFill=0;shape=link;exitX=0;exitY=0.5;exitDx=0;exitDy=0;" edge="1" parent="1" source="59IasX3adQ8Y-ad1ousX-142" target="59IasX3adQ8Y-ad1ousX-150">
          <mxGeometry relative="1" as="geometry">
            <mxPoint x="500" y="710" as="sourcePoint" />
          </mxGeometry>
        </mxCell>
        <mxCell id="59IasX3adQ8Y-ad1ousX-180" style="edgeStyle=orthogonalEdgeStyle;rounded=0;orthogonalLoop=1;jettySize=auto;html=1;strokeColor=default;align=center;verticalAlign=middle;fontFamily=Helvetica;fontSize=11;fontColor=default;labelBackgroundColor=default;endArrow=none;endFill=0;entryX=0;entryY=0.5;entryDx=0;entryDy=0;" edge="1" parent="1" source="59IasX3adQ8Y-ad1ousX-148" target="59IasX3adQ8Y-ad1ousX-175">
          <mxGeometry relative="1" as="geometry">
            <Array as="points">
              <mxPoint x="270" y="1080" />
              <mxPoint x="1360" y="1080" />
            </Array>
          </mxGeometry>
        </mxCell>
        <mxCell id="59IasX3adQ8Y-ad1ousX-148" value="LABEL_MUSIK" style="whiteSpace=wrap;html=1;align=center;" vertex="1" parent="1">
          <mxGeometry x="220" y="700" width="100" height="40" as="geometry" />
        </mxCell>
        <mxCell id="59IasX3adQ8Y-ad1ousX-149" value="" style="edgeStyle=none;rounded=0;orthogonalLoop=1;jettySize=auto;html=1;strokeColor=default;align=center;verticalAlign=middle;fontFamily=Helvetica;fontSize=11;fontColor=default;labelBackgroundColor=default;endArrow=none;endFill=0;" edge="1" parent="1" source="59IasX3adQ8Y-ad1ousX-150" target="59IasX3adQ8Y-ad1ousX-148">
          <mxGeometry relative="1" as="geometry" />
        </mxCell>
        <mxCell id="59IasX3adQ8Y-ad1ousX-150" value="DIPEODUKSI_OLEH" style="shape=rhombus;perimeter=rhombusPerimeter;whiteSpace=wrap;html=1;align=center;fontFamily=Helvetica;fontSize=11;fontColor=default;labelBackgroundColor=default;" vertex="1" parent="1">
          <mxGeometry x="350" y="690" width="120" height="60" as="geometry" />
        </mxCell>
        <mxCell id="59IasX3adQ8Y-ad1ousX-159" value="" style="edgeStyle=none;rounded=0;orthogonalLoop=1;jettySize=auto;html=1;strokeColor=default;align=center;verticalAlign=middle;fontFamily=Helvetica;fontSize=11;fontColor=default;labelBackgroundColor=default;endArrow=none;endFill=0;shape=link;" edge="1" parent="1" source="59IasX3adQ8Y-ad1ousX-154" target="59IasX3adQ8Y-ad1ousX-158">
          <mxGeometry relative="1" as="geometry" />
        </mxCell>
        <mxCell id="59IasX3adQ8Y-ad1ousX-154" value="PLAYLIST" style="whiteSpace=wrap;html=1;align=center;" vertex="1" parent="1">
          <mxGeometry x="675" y="477.5" width="100" height="40" as="geometry" />
        </mxCell>
        <mxCell id="59IasX3adQ8Y-ad1ousX-155" value="MEMILIKI" style="shape=rhombus;perimeter=rhombusPerimeter;whiteSpace=wrap;html=1;align=center;fontFamily=Helvetica;fontSize=11;fontColor=default;labelBackgroundColor=default;" vertex="1" parent="1">
          <mxGeometry x="665" y="390" width="120" height="60" as="geometry" />
        </mxCell>
        <mxCell id="59IasX3adQ8Y-ad1ousX-156" style="edgeStyle=none;rounded=0;orthogonalLoop=1;jettySize=auto;html=1;entryX=0.5;entryY=1;entryDx=0;entryDy=0;strokeColor=default;align=center;verticalAlign=middle;fontFamily=Helvetica;fontSize=11;fontColor=default;labelBackgroundColor=default;endArrow=none;endFill=0;shape=link;" edge="1" parent="1" source="59IasX3adQ8Y-ad1ousX-154" target="59IasX3adQ8Y-ad1ousX-155">
          <mxGeometry relative="1" as="geometry" />
        </mxCell>
        <mxCell id="59IasX3adQ8Y-ad1ousX-160" style="edgeStyle=none;rounded=0;orthogonalLoop=1;jettySize=auto;html=1;strokeColor=default;align=center;verticalAlign=middle;fontFamily=Helvetica;fontSize=11;fontColor=default;labelBackgroundColor=default;endArrow=none;endFill=0;" edge="1" parent="1" source="59IasX3adQ8Y-ad1ousX-158" target="59IasX3adQ8Y-ad1ousX-109">
          <mxGeometry relative="1" as="geometry" />
        </mxCell>
        <mxCell id="59IasX3adQ8Y-ad1ousX-158" value="BERISI" style="shape=rhombus;perimeter=rhombusPerimeter;whiteSpace=wrap;html=1;align=center;fontFamily=Helvetica;fontSize=11;fontColor=default;labelBackgroundColor=default;" vertex="1" parent="1">
          <mxGeometry x="665" y="540" width="120" height="60" as="geometry" />
        </mxCell>
        <mxCell id="59IasX3adQ8Y-ad1ousX-161" value="CHART" style="whiteSpace=wrap;html=1;align=center;" vertex="1" parent="1">
          <mxGeometry x="810" y="430" width="100" height="40" as="geometry" />
        </mxCell>
        <mxCell id="59IasX3adQ8Y-ad1ousX-162" style="edgeStyle=none;rounded=0;orthogonalLoop=1;jettySize=auto;html=1;entryX=0;entryY=0.5;entryDx=0;entryDy=0;strokeColor=default;align=center;verticalAlign=middle;fontFamily=Helvetica;fontSize=11;fontColor=default;labelBackgroundColor=default;endArrow=none;endFill=0;" edge="1" parent="1" source="59IasX3adQ8Y-ad1ousX-163" target="59IasX3adQ8Y-ad1ousX-161">
          <mxGeometry relative="1" as="geometry">
            <mxPoint x="940" y="475" as="targetPoint" />
          </mxGeometry>
        </mxCell>
        <mxCell id="59IasX3adQ8Y-ad1ousX-163" value="" style="shape=requiredInterface;html=1;verticalLabelPosition=bottom;sketch=0;fontFamily=Helvetica;fontSize=11;fontColor=default;labelBackgroundColor=default;rotation=-45;" vertex="1" parent="1">
          <mxGeometry x="790" y="460" width="10" height="20" as="geometry" />
        </mxCell>
        <mxCell id="59IasX3adQ8Y-ad1ousX-164" style="edgeStyle=none;rounded=0;orthogonalLoop=1;jettySize=auto;html=1;entryX=1;entryY=0.5;entryDx=0;entryDy=0;entryPerimeter=0;strokeColor=default;align=center;verticalAlign=middle;fontFamily=Helvetica;fontSize=11;fontColor=default;labelBackgroundColor=default;endArrow=none;endFill=0;exitX=1;exitY=0.5;exitDx=0;exitDy=0;" edge="1" parent="1" source="59IasX3adQ8Y-ad1ousX-154" target="59IasX3adQ8Y-ad1ousX-163">
          <mxGeometry relative="1" as="geometry">
            <mxPoint x="695" y="480.0000000000001" as="sourcePoint" />
          </mxGeometry>
        </mxCell>
        <mxCell id="59IasX3adQ8Y-ad1ousX-167" style="edgeStyle=none;rounded=0;orthogonalLoop=1;jettySize=auto;html=1;strokeColor=default;align=center;verticalAlign=middle;fontFamily=Helvetica;fontSize=11;fontColor=default;labelBackgroundColor=default;endArrow=none;endFill=0;" edge="1" parent="1" source="59IasX3adQ8Y-ad1ousX-166" target="59IasX3adQ8Y-ad1ousX-161">
          <mxGeometry relative="1" as="geometry" />
        </mxCell>
        <mxCell id="59IasX3adQ8Y-ad1ousX-166" value="Jenis" style="ellipse;whiteSpace=wrap;html=1;align=center;fontFamily=Helvetica;fontSize=11;fontColor=default;labelBackgroundColor=default;" vertex="1" parent="1">
          <mxGeometry x="870" y="380" width="60" height="30" as="geometry" />
        </mxCell>
        <mxCell id="59IasX3adQ8Y-ad1ousX-170" style="rounded=0;orthogonalLoop=1;jettySize=auto;html=1;entryX=0;entryY=0;entryDx=0;entryDy=0;strokeColor=default;align=center;verticalAlign=middle;fontFamily=Helvetica;fontSize=11;fontColor=default;labelBackgroundColor=default;endArrow=none;endFill=0;elbow=vertical;exitX=0.5;exitY=1;exitDx=0;exitDy=0;" edge="1" parent="1" source="59IasX3adQ8Y-ad1ousX-168" target="59IasX3adQ8Y-ad1ousX-109">
          <mxGeometry relative="1" as="geometry" />
        </mxCell>
        <mxCell id="59IasX3adQ8Y-ad1ousX-168" value="MENDOWNLOAD" style="shape=rhombus;perimeter=rhombusPerimeter;whiteSpace=wrap;html=1;align=center;fontFamily=Helvetica;fontSize=11;fontColor=default;labelBackgroundColor=default;" vertex="1" parent="1">
          <mxGeometry x="405.00000000000006" y="470" width="120" height="60" as="geometry" />
        </mxCell>
        <mxCell id="59IasX3adQ8Y-ad1ousX-172" style="edgeStyle=none;rounded=0;orthogonalLoop=1;jettySize=auto;html=1;entryX=0;entryY=0.5;entryDx=0;entryDy=0;strokeColor=default;align=center;verticalAlign=middle;fontFamily=Helvetica;fontSize=11;fontColor=default;labelBackgroundColor=default;endArrow=none;endFill=0;" edge="1" parent="1" source="59IasX3adQ8Y-ad1ousX-171" target="59IasX3adQ8Y-ad1ousX-168">
          <mxGeometry relative="1" as="geometry" />
        </mxCell>
        <mxCell id="59IasX3adQ8Y-ad1ousX-171" value="Tanggal_download" style="ellipse;whiteSpace=wrap;html=1;align=center;fontFamily=Helvetica;fontSize=11;fontColor=default;labelBackgroundColor=default;" vertex="1" parent="1">
          <mxGeometry x="330" y="543.75" width="100" height="40" as="geometry" />
        </mxCell>
        <mxCell id="xd1dRqiQvzqtv7HBqE77-102" style="edgeStyle=none;rounded=0;orthogonalLoop=1;jettySize=auto;html=1;entryX=1;entryY=0.5;entryDx=0;entryDy=0;strokeColor=default;align=center;verticalAlign=middle;fontFamily=Helvetica;fontSize=11;fontColor=default;labelBackgroundColor=default;endArrow=none;endFill=0;shape=link;exitX=1;exitY=0.5;exitDx=0;exitDy=0;exitPerimeter=0;" edge="1" parent="1" source="xd1dRqiQvzqtv7HBqE77-104" target="59IasX3adQ8Y-ad1ousX-175">
          <mxGeometry relative="1" as="geometry" />
        </mxCell>
        <mxCell id="59IasX3adQ8Y-ad1ousX-173" value="PEMILIK_HAK_CIPTA" style="whiteSpace=wrap;html=1;align=center;" vertex="1" parent="1">
          <mxGeometry x="1500.0000000000002" y="337.5" width="132.17" height="40" as="geometry" />
        </mxCell>
        <mxCell id="59IasX3adQ8Y-ad1ousX-175" value="&lt;b&gt;U&lt;/b&gt;" style="shape=ellipse;html=1;dashed=0;whiteSpace=wrap;aspect=fixed;perimeter=ellipsePerimeter;" vertex="1" parent="1">
          <mxGeometry x="1360" y="345" width="25" height="25" as="geometry" />
        </mxCell>
        <mxCell id="59IasX3adQ8Y-ad1ousX-185" style="edgeStyle=orthogonalEdgeStyle;rounded=0;orthogonalLoop=1;jettySize=auto;html=1;strokeColor=default;align=center;verticalAlign=middle;fontFamily=Helvetica;fontSize=11;fontColor=default;labelBackgroundColor=default;endArrow=none;endFill=0;" edge="1" parent="1" source="59IasX3adQ8Y-ad1ousX-183" target="59IasX3adQ8Y-ad1ousX-173">
          <mxGeometry relative="1" as="geometry" />
        </mxCell>
        <mxCell id="59IasX3adQ8Y-ad1ousX-183" value="&lt;font style=&quot;font-size: 10px;&quot;&gt;MENDAPAT_ROYALTI&lt;/font&gt;" style="shape=rhombus;perimeter=rhombusPerimeter;whiteSpace=wrap;html=1;align=center;fontFamily=Helvetica;fontSize=11;fontColor=default;labelBackgroundColor=default;" vertex="1" parent="1">
          <mxGeometry x="830" y="950" width="120" height="60" as="geometry" />
        </mxCell>
        <mxCell id="xd1dRqiQvzqtv7HBqE77-5" style="edgeStyle=none;rounded=0;orthogonalLoop=1;jettySize=auto;html=1;strokeColor=default;align=center;verticalAlign=middle;fontFamily=Helvetica;fontSize=11;fontColor=default;labelBackgroundColor=default;endArrow=none;endFill=0;entryX=0.5;entryY=0;entryDx=0;entryDy=0;" edge="1" parent="1" source="xd1dRqiQvzqtv7HBqE77-2" target="59IasX3adQ8Y-ad1ousX-58">
          <mxGeometry relative="1" as="geometry" />
        </mxCell>
        <mxCell id="xd1dRqiQvzqtv7HBqE77-2" value="Email" style="ellipse;whiteSpace=wrap;html=1;align=center;fontStyle=4;" vertex="1" parent="1">
          <mxGeometry x="600" y="280" width="70" height="30" as="geometry" />
        </mxCell>
        <mxCell id="xd1dRqiQvzqtv7HBqE77-7" value="Nama" style="ellipse;whiteSpace=wrap;html=1;align=center;fontFamily=Helvetica;fontSize=11;fontColor=default;labelBackgroundColor=default;" vertex="1" parent="1">
          <mxGeometry x="635" y="250" width="60" height="30" as="geometry" />
        </mxCell>
        <mxCell id="xd1dRqiQvzqtv7HBqE77-8" style="edgeStyle=none;rounded=0;orthogonalLoop=1;jettySize=auto;html=1;entryX=0.5;entryY=0;entryDx=0;entryDy=0;strokeColor=default;align=center;verticalAlign=middle;fontFamily=Helvetica;fontSize=11;fontColor=default;labelBackgroundColor=default;endArrow=none;endFill=0;" edge="1" parent="1" source="xd1dRqiQvzqtv7HBqE77-7" target="59IasX3adQ8Y-ad1ousX-58">
          <mxGeometry relative="1" as="geometry" />
        </mxCell>
        <mxCell id="xd1dRqiQvzqtv7HBqE77-9" value="Gender" style="ellipse;whiteSpace=wrap;html=1;align=center;fontFamily=Helvetica;fontSize=11;fontColor=default;labelBackgroundColor=default;" vertex="1" parent="1">
          <mxGeometry x="685" y="230" width="65" height="30" as="geometry" />
        </mxCell>
        <mxCell id="xd1dRqiQvzqtv7HBqE77-10" style="edgeStyle=none;rounded=0;orthogonalLoop=1;jettySize=auto;html=1;entryX=0.5;entryY=0;entryDx=0;entryDy=0;strokeColor=default;align=center;verticalAlign=middle;fontFamily=Helvetica;fontSize=11;fontColor=default;labelBackgroundColor=default;endArrow=none;endFill=0;" edge="1" parent="1" source="xd1dRqiQvzqtv7HBqE77-9" target="59IasX3adQ8Y-ad1ousX-58">
          <mxGeometry relative="1" as="geometry" />
        </mxCell>
        <mxCell id="xd1dRqiQvzqtv7HBqE77-12" style="edgeStyle=none;rounded=0;orthogonalLoop=1;jettySize=auto;html=1;strokeColor=default;align=center;verticalAlign=middle;fontFamily=Helvetica;fontSize=11;fontColor=default;labelBackgroundColor=default;endArrow=none;endFill=0;entryX=0.5;entryY=0;entryDx=0;entryDy=0;" edge="1" parent="1" source="xd1dRqiQvzqtv7HBqE77-11" target="59IasX3adQ8Y-ad1ousX-58">
          <mxGeometry relative="1" as="geometry">
            <mxPoint x="730" y="330" as="targetPoint" />
          </mxGeometry>
        </mxCell>
        <mxCell id="xd1dRqiQvzqtv7HBqE77-11" value="TTL" style="ellipse;whiteSpace=wrap;html=1;align=center;fontFamily=Helvetica;fontSize=11;fontColor=default;labelBackgroundColor=default;" vertex="1" parent="1">
          <mxGeometry x="750" y="220" width="55" height="30" as="geometry" />
        </mxCell>
        <mxCell id="xd1dRqiQvzqtv7HBqE77-14" value="Kota_asal" style="ellipse;whiteSpace=wrap;html=1;align=center;fontFamily=Helvetica;fontSize=11;fontColor=default;labelBackgroundColor=default;" vertex="1" parent="1">
          <mxGeometry x="790" y="240" width="70" height="30" as="geometry" />
        </mxCell>
        <mxCell id="xd1dRqiQvzqtv7HBqE77-15" style="edgeStyle=none;rounded=0;orthogonalLoop=1;jettySize=auto;html=1;entryX=0.5;entryY=0;entryDx=0;entryDy=0;strokeColor=default;align=center;verticalAlign=middle;fontFamily=Helvetica;fontSize=11;fontColor=default;labelBackgroundColor=default;endArrow=none;endFill=0;" edge="1" parent="1" source="xd1dRqiQvzqtv7HBqE77-14" target="59IasX3adQ8Y-ad1ousX-58">
          <mxGeometry relative="1" as="geometry" />
        </mxCell>
        <mxCell id="xd1dRqiQvzqtv7HBqE77-20" value="" style="rounded=0;orthogonalLoop=1;jettySize=auto;html=1;entryX=1;entryY=0.5;entryDx=0;entryDy=0;endArrow=none;endFill=0;" edge="1" parent="1" source="59IasX3adQ8Y-ad1ousX-58" target="xd1dRqiQvzqtv7HBqE77-16">
          <mxGeometry relative="1" as="geometry">
            <mxPoint x="670" y="352" as="sourcePoint" />
            <mxPoint x="520" y="360" as="targetPoint" />
          </mxGeometry>
        </mxCell>
        <mxCell id="xd1dRqiQvzqtv7HBqE77-16" value="" style="shape=requiredInterface;html=1;verticalLabelPosition=bottom;sketch=0;fontFamily=Helvetica;fontSize=11;fontColor=default;labelBackgroundColor=default;rotation=-180;" vertex="1" parent="1">
          <mxGeometry x="577.5" y="330" width="10" height="20" as="geometry" />
        </mxCell>
        <mxCell id="xd1dRqiQvzqtv7HBqE77-22" style="edgeStyle=none;rounded=0;orthogonalLoop=1;jettySize=auto;html=1;strokeColor=default;align=center;verticalAlign=middle;fontFamily=Helvetica;fontSize=11;fontColor=default;labelBackgroundColor=default;endArrow=none;endFill=0;entryX=0.436;entryY=1;entryDx=0;entryDy=0;entryPerimeter=0;" edge="1" parent="1" source="xd1dRqiQvzqtv7HBqE77-21" target="59IasX3adQ8Y-ad1ousX-108">
          <mxGeometry relative="1" as="geometry" />
        </mxCell>
        <mxCell id="xd1dRqiQvzqtv7HBqE77-21" value="Id" style="ellipse;whiteSpace=wrap;html=1;align=center;fontStyle=4;fontFamily=Helvetica;fontSize=11;fontColor=default;labelBackgroundColor=default;" vertex="1" parent="1">
          <mxGeometry x="933.5799999999999" y="830" width="56.42" height="25" as="geometry" />
        </mxCell>
        <mxCell id="xd1dRqiQvzqtv7HBqE77-25" style="edgeStyle=none;rounded=0;orthogonalLoop=1;jettySize=auto;html=1;entryX=0.5;entryY=1;entryDx=0;entryDy=0;strokeColor=default;align=center;verticalAlign=middle;fontFamily=Helvetica;fontSize=11;fontColor=default;labelBackgroundColor=default;endArrow=none;endFill=0;" edge="1" parent="1" source="xd1dRqiQvzqtv7HBqE77-23" target="59IasX3adQ8Y-ad1ousX-108">
          <mxGeometry relative="1" as="geometry" />
        </mxCell>
        <mxCell id="xd1dRqiQvzqtv7HBqE77-23" value="Judul" style="ellipse;whiteSpace=wrap;html=1;align=center;fontFamily=Helvetica;fontSize=11;fontColor=default;labelBackgroundColor=default;" vertex="1" parent="1">
          <mxGeometry x="933.5799999999999" y="855" width="55" height="30" as="geometry" />
        </mxCell>
        <mxCell id="xd1dRqiQvzqtv7HBqE77-26" style="edgeStyle=none;rounded=0;orthogonalLoop=1;jettySize=auto;html=1;entryX=0.5;entryY=1;entryDx=0;entryDy=0;strokeColor=default;align=center;verticalAlign=middle;fontFamily=Helvetica;fontSize=11;fontColor=default;labelBackgroundColor=default;endArrow=none;endFill=0;" edge="1" parent="1" source="xd1dRqiQvzqtv7HBqE77-24" target="59IasX3adQ8Y-ad1ousX-108">
          <mxGeometry relative="1" as="geometry" />
        </mxCell>
        <mxCell id="xd1dRqiQvzqtv7HBqE77-24" value="Tanggal_rilis" style="ellipse;whiteSpace=wrap;html=1;align=center;fontFamily=Helvetica;fontSize=11;fontColor=default;labelBackgroundColor=default;" vertex="1" parent="1">
          <mxGeometry x="1011.4200000000001" y="880" width="70" height="30" as="geometry" />
        </mxCell>
        <mxCell id="xd1dRqiQvzqtv7HBqE77-28" style="edgeStyle=none;rounded=0;orthogonalLoop=1;jettySize=auto;html=1;entryX=0.5;entryY=1;entryDx=0;entryDy=0;strokeColor=default;align=center;verticalAlign=middle;fontFamily=Helvetica;fontSize=11;fontColor=default;labelBackgroundColor=default;endArrow=none;endFill=0;" edge="1" parent="1" source="xd1dRqiQvzqtv7HBqE77-27" target="59IasX3adQ8Y-ad1ousX-108">
          <mxGeometry relative="1" as="geometry" />
        </mxCell>
        <mxCell id="xd1dRqiQvzqtv7HBqE77-27" value="Tahun" style="ellipse;whiteSpace=wrap;html=1;align=center;fontFamily=Helvetica;fontSize=11;fontColor=default;labelBackgroundColor=default;" vertex="1" parent="1">
          <mxGeometry x="988.5799999999999" y="855" width="46.42" height="30" as="geometry" />
        </mxCell>
        <mxCell id="xd1dRqiQvzqtv7HBqE77-29" value="Genre" style="ellipse;shape=doubleEllipse;margin=3;whiteSpace=wrap;html=1;align=center;fontFamily=Helvetica;fontSize=11;fontColor=default;labelBackgroundColor=default;" vertex="1" parent="1">
          <mxGeometry x="1106.42" y="837.5" width="62.5" height="25" as="geometry" />
        </mxCell>
        <mxCell id="xd1dRqiQvzqtv7HBqE77-30" style="edgeStyle=none;rounded=0;orthogonalLoop=1;jettySize=auto;html=1;entryX=0.5;entryY=1;entryDx=0;entryDy=0;strokeColor=default;align=center;verticalAlign=middle;fontFamily=Helvetica;fontSize=11;fontColor=default;labelBackgroundColor=default;endArrow=none;endFill=0;" edge="1" parent="1" source="xd1dRqiQvzqtv7HBqE77-29" target="59IasX3adQ8Y-ad1ousX-108">
          <mxGeometry relative="1" as="geometry" />
        </mxCell>
        <mxCell id="xd1dRqiQvzqtv7HBqE77-32" style="edgeStyle=none;rounded=0;orthogonalLoop=1;jettySize=auto;html=1;entryX=0.5;entryY=1;entryDx=0;entryDy=0;strokeColor=default;align=center;verticalAlign=middle;fontFamily=Helvetica;fontSize=11;fontColor=default;labelBackgroundColor=default;endArrow=none;endFill=0;" edge="1" parent="1" source="xd1dRqiQvzqtv7HBqE77-31" target="59IasX3adQ8Y-ad1ousX-108">
          <mxGeometry relative="1" as="geometry" />
        </mxCell>
        <mxCell id="xd1dRqiQvzqtv7HBqE77-31" value="Durasi" style="ellipse;whiteSpace=wrap;html=1;align=center;fontFamily=Helvetica;fontSize=11;fontColor=default;labelBackgroundColor=default;" vertex="1" parent="1">
          <mxGeometry x="1062.51" y="860" width="60" height="20" as="geometry" />
        </mxCell>
        <mxCell id="xd1dRqiQvzqtv7HBqE77-36" style="edgeStyle=none;rounded=0;orthogonalLoop=1;jettySize=auto;html=1;strokeColor=default;align=center;verticalAlign=middle;fontFamily=Helvetica;fontSize=11;fontColor=default;labelBackgroundColor=default;endArrow=none;endFill=0;entryX=0.5;entryY=1;entryDx=0;entryDy=0;" edge="1" parent="1" source="xd1dRqiQvzqtv7HBqE77-35" target="xd1dRqiQvzqtv7HBqE77-44">
          <mxGeometry relative="1" as="geometry">
            <mxPoint x="1308.8888888888891" y="920" as="targetPoint" />
          </mxGeometry>
        </mxCell>
        <mxCell id="xd1dRqiQvzqtv7HBqE77-35" value="Tanggal_rilis" style="ellipse;whiteSpace=wrap;html=1;align=center;fontFamily=Helvetica;fontSize=11;fontColor=default;labelBackgroundColor=default;" vertex="1" parent="1">
          <mxGeometry x="1142.51" y="920" width="80" height="30" as="geometry" />
        </mxCell>
        <mxCell id="xd1dRqiQvzqtv7HBqE77-38" style="edgeStyle=none;rounded=0;orthogonalLoop=1;jettySize=auto;html=1;strokeColor=default;align=center;verticalAlign=middle;fontFamily=Helvetica;fontSize=11;fontColor=default;labelBackgroundColor=default;endArrow=none;endFill=0;entryX=0.5;entryY=1;entryDx=0;entryDy=0;" edge="1" parent="1" source="xd1dRqiQvzqtv7HBqE77-37" target="xd1dRqiQvzqtv7HBqE77-44">
          <mxGeometry relative="1" as="geometry">
            <mxPoint x="1340" y="920" as="targetPoint" />
          </mxGeometry>
        </mxCell>
        <mxCell id="xd1dRqiQvzqtv7HBqE77-37" value="Judul" style="ellipse;whiteSpace=wrap;html=1;align=center;fontFamily=Helvetica;fontSize=11;fontColor=default;labelBackgroundColor=default;" vertex="1" parent="1">
          <mxGeometry x="1210" y="940" width="50" height="20" as="geometry" />
        </mxCell>
        <mxCell id="xd1dRqiQvzqtv7HBqE77-47" value="" style="edgeStyle=none;rounded=0;orthogonalLoop=1;jettySize=auto;html=1;strokeColor=default;align=center;verticalAlign=middle;fontFamily=Helvetica;fontSize=11;fontColor=default;labelBackgroundColor=default;endArrow=none;endFill=0;entryX=0.54;entryY=1.021;entryDx=0;entryDy=0;entryPerimeter=0;" edge="1" parent="1" source="xd1dRqiQvzqtv7HBqE77-39" target="xd1dRqiQvzqtv7HBqE77-44">
          <mxGeometry relative="1" as="geometry" />
        </mxCell>
        <mxCell id="xd1dRqiQvzqtv7HBqE77-39" value="Deskripsi" style="ellipse;whiteSpace=wrap;html=1;align=center;fontFamily=Helvetica;fontSize=11;fontColor=default;labelBackgroundColor=default;" vertex="1" parent="1">
          <mxGeometry x="1245" y="910" width="60" height="30" as="geometry" />
        </mxCell>
        <mxCell id="xd1dRqiQvzqtv7HBqE77-42" style="edgeStyle=none;rounded=0;orthogonalLoop=1;jettySize=auto;html=1;entryX=0.5;entryY=1;entryDx=0;entryDy=0;strokeColor=default;align=center;verticalAlign=middle;fontFamily=Helvetica;fontSize=11;fontColor=default;labelBackgroundColor=default;endArrow=none;endFill=0;" edge="1" parent="1" source="xd1dRqiQvzqtv7HBqE77-41" target="xd1dRqiQvzqtv7HBqE77-44">
          <mxGeometry relative="1" as="geometry">
            <mxPoint x="1325" y="880" as="targetPoint" />
          </mxGeometry>
        </mxCell>
        <mxCell id="xd1dRqiQvzqtv7HBqE77-41" value="Durasi" style="ellipse;whiteSpace=wrap;html=1;align=center;fontFamily=Helvetica;fontSize=11;fontColor=default;labelBackgroundColor=default;" vertex="1" parent="1">
          <mxGeometry x="1285" y="887.5" width="60" height="25" as="geometry" />
        </mxCell>
        <mxCell id="xd1dRqiQvzqtv7HBqE77-93" value="" style="edgeStyle=none;rounded=0;orthogonalLoop=1;jettySize=auto;html=1;strokeColor=default;align=center;verticalAlign=middle;fontFamily=Helvetica;fontSize=11;fontColor=default;labelBackgroundColor=default;endArrow=none;endFill=0;" edge="1" parent="1" source="xd1dRqiQvzqtv7HBqE77-43" target="59IasX3adQ8Y-ad1ousX-110">
          <mxGeometry relative="1" as="geometry" />
        </mxCell>
        <mxCell id="xd1dRqiQvzqtv7HBqE77-100" value="" style="edgeStyle=none;rounded=0;orthogonalLoop=1;jettySize=auto;html=1;strokeColor=default;align=center;verticalAlign=middle;fontFamily=Helvetica;fontSize=11;fontColor=default;labelBackgroundColor=default;endArrow=none;endFill=0;" edge="1" parent="1" source="xd1dRqiQvzqtv7HBqE77-43" target="xd1dRqiQvzqtv7HBqE77-44">
          <mxGeometry relative="1" as="geometry" />
        </mxCell>
        <mxCell id="xd1dRqiQvzqtv7HBqE77-43" value="TERIDIRI_ATAS" style="shape=rhombus;double=1;perimeter=rhombusPerimeter;whiteSpace=wrap;html=1;align=center;fontFamily=Helvetica;fontSize=11;fontColor=default;labelBackgroundColor=default;" vertex="1" parent="1">
          <mxGeometry x="1165" y="775" width="120" height="60" as="geometry" />
        </mxCell>
        <mxCell id="xd1dRqiQvzqtv7HBqE77-44" value="EPISODE" style="shape=ext;margin=3;double=1;whiteSpace=wrap;html=1;align=center;fontFamily=Helvetica;fontSize=11;fontColor=default;labelBackgroundColor=default;" vertex="1" parent="1">
          <mxGeometry x="1175" y="855" width="100" height="40" as="geometry" />
        </mxCell>
        <mxCell id="xd1dRqiQvzqtv7HBqE77-101" style="edgeStyle=none;rounded=0;orthogonalLoop=1;jettySize=auto;html=1;entryX=0.5;entryY=1;entryDx=0;entryDy=0;strokeColor=default;align=center;verticalAlign=middle;fontFamily=Helvetica;fontSize=11;fontColor=default;labelBackgroundColor=default;endArrow=none;endFill=0;" edge="1" parent="1" source="xd1dRqiQvzqtv7HBqE77-49" target="xd1dRqiQvzqtv7HBqE77-44">
          <mxGeometry relative="1" as="geometry" />
        </mxCell>
        <mxCell id="xd1dRqiQvzqtv7HBqE77-49" value="&lt;span style=&quot;border-bottom: 1px dotted&quot;&gt;Id&lt;/span&gt;" style="ellipse;whiteSpace=wrap;html=1;align=center;fontFamily=Helvetica;fontSize=11;fontColor=default;labelBackgroundColor=default;" vertex="1" parent="1">
          <mxGeometry x="1140" y="895" width="50.72" height="25" as="geometry" />
        </mxCell>
        <mxCell id="xd1dRqiQvzqtv7HBqE77-50" value="Nama" style="ellipse;whiteSpace=wrap;html=1;align=center;fontFamily=Helvetica;fontSize=11;fontColor=default;labelBackgroundColor=default;" vertex="1" parent="1">
          <mxGeometry x="185" y="630" width="60" height="30" as="geometry" />
        </mxCell>
        <mxCell id="xd1dRqiQvzqtv7HBqE77-51" style="edgeStyle=none;rounded=0;orthogonalLoop=1;jettySize=auto;html=1;strokeColor=default;align=center;verticalAlign=middle;fontFamily=Helvetica;fontSize=11;fontColor=default;labelBackgroundColor=default;endArrow=none;endFill=0;" edge="1" parent="1" source="xd1dRqiQvzqtv7HBqE77-50" target="59IasX3adQ8Y-ad1ousX-148">
          <mxGeometry relative="1" as="geometry" />
        </mxCell>
        <mxCell id="xd1dRqiQvzqtv7HBqE77-53" style="edgeStyle=none;rounded=0;orthogonalLoop=1;jettySize=auto;html=1;strokeColor=default;align=center;verticalAlign=middle;fontFamily=Helvetica;fontSize=11;fontColor=default;labelBackgroundColor=default;endArrow=none;endFill=0;" edge="1" parent="1" source="xd1dRqiQvzqtv7HBqE77-52" target="59IasX3adQ8Y-ad1ousX-148">
          <mxGeometry relative="1" as="geometry" />
        </mxCell>
        <mxCell id="xd1dRqiQvzqtv7HBqE77-52" value="Email" style="ellipse;whiteSpace=wrap;html=1;align=center;fontFamily=Helvetica;fontSize=11;fontColor=default;labelBackgroundColor=default;" vertex="1" parent="1">
          <mxGeometry x="130" y="670" width="60" height="30" as="geometry" />
        </mxCell>
        <mxCell id="xd1dRqiQvzqtv7HBqE77-55" style="edgeStyle=none;rounded=0;orthogonalLoop=1;jettySize=auto;html=1;strokeColor=default;align=center;verticalAlign=middle;fontFamily=Helvetica;fontSize=11;fontColor=default;labelBackgroundColor=default;endArrow=none;endFill=0;exitX=0.938;exitY=0.316;exitDx=0;exitDy=0;exitPerimeter=0;" edge="1" parent="1" source="xd1dRqiQvzqtv7HBqE77-58" target="59IasX3adQ8Y-ad1ousX-148">
          <mxGeometry relative="1" as="geometry">
            <mxPoint x="370.2578497294844" y="763.9231620159376" as="sourcePoint" />
          </mxGeometry>
        </mxCell>
        <mxCell id="xd1dRqiQvzqtv7HBqE77-57" value="" style="edgeStyle=none;rounded=0;orthogonalLoop=1;jettySize=auto;html=1;strokeColor=default;align=center;verticalAlign=middle;fontFamily=Helvetica;fontSize=11;fontColor=default;labelBackgroundColor=default;endArrow=none;endFill=0;" edge="1" parent="1" source="xd1dRqiQvzqtv7HBqE77-111" target="59IasX3adQ8Y-ad1ousX-148">
          <mxGeometry relative="1" as="geometry">
            <mxPoint x="270" y="650" as="sourcePoint" />
          </mxGeometry>
        </mxCell>
        <mxCell id="xd1dRqiQvzqtv7HBqE77-58" value="Kontak" style="ellipse;shape=doubleEllipse;margin=3;whiteSpace=wrap;html=1;align=center;fontFamily=Helvetica;fontSize=11;fontColor=default;labelBackgroundColor=default;" vertex="1" parent="1">
          <mxGeometry x="110" y="710" width="70" height="30" as="geometry" />
        </mxCell>
        <mxCell id="xd1dRqiQvzqtv7HBqE77-59" value="Asumsi suatu label musik&lt;div&gt;bisa memiliki lebih dari 1 kontak,&amp;nbsp;&lt;/div&gt;&lt;div&gt;seperti email, wa, dll.&lt;/div&gt;&lt;div&gt;Sehingga atribut kontak adalah multivalue&lt;/div&gt;" style="text;html=1;align=center;verticalAlign=middle;resizable=0;points=[];autosize=1;strokeColor=none;fillColor=none;fontFamily=Helvetica;fontSize=11;fontColor=default;labelBackgroundColor=none;" vertex="1" parent="1">
          <mxGeometry x="30" y="740" width="230" height="70" as="geometry" />
        </mxCell>
        <mxCell id="xd1dRqiQvzqtv7HBqE77-106" style="edgeStyle=none;rounded=0;orthogonalLoop=1;jettySize=auto;html=1;entryX=0;entryY=0.5;entryDx=0;entryDy=0;strokeColor=default;align=center;verticalAlign=middle;fontFamily=Helvetica;fontSize=11;fontColor=default;labelBackgroundColor=default;endArrow=none;endFill=0;" edge="1" parent="1" source="xd1dRqiQvzqtv7HBqE77-60" target="59IasX3adQ8Y-ad1ousX-154">
          <mxGeometry relative="1" as="geometry" />
        </mxCell>
        <mxCell id="xd1dRqiQvzqtv7HBqE77-60" value="Judul" style="ellipse;whiteSpace=wrap;html=1;align=center;fontFamily=Helvetica;fontSize=11;fontColor=default;labelBackgroundColor=default;" vertex="1" parent="1">
          <mxGeometry x="579.99" y="459.38" width="55.01" height="21.25" as="geometry" />
        </mxCell>
        <mxCell id="xd1dRqiQvzqtv7HBqE77-107" style="edgeStyle=none;rounded=0;orthogonalLoop=1;jettySize=auto;html=1;strokeColor=default;align=center;verticalAlign=middle;fontFamily=Helvetica;fontSize=11;fontColor=default;labelBackgroundColor=default;endArrow=none;endFill=0;entryX=0;entryY=0.5;entryDx=0;entryDy=0;" edge="1" parent="1" source="xd1dRqiQvzqtv7HBqE77-63" target="59IasX3adQ8Y-ad1ousX-154">
          <mxGeometry relative="1" as="geometry" />
        </mxCell>
        <mxCell id="xd1dRqiQvzqtv7HBqE77-63" value="Deskripsi" style="ellipse;whiteSpace=wrap;html=1;align=center;fontFamily=Helvetica;fontSize=11;fontColor=default;labelBackgroundColor=default;" vertex="1" parent="1">
          <mxGeometry x="536.24" y="480.63" width="73.76" height="20" as="geometry" />
        </mxCell>
        <mxCell id="xd1dRqiQvzqtv7HBqE77-108" style="edgeStyle=none;rounded=0;orthogonalLoop=1;jettySize=auto;html=1;entryX=0;entryY=0.5;entryDx=0;entryDy=0;strokeColor=default;align=center;verticalAlign=middle;fontFamily=Helvetica;fontSize=11;fontColor=default;labelBackgroundColor=default;endArrow=none;endFill=0;" edge="1" parent="1" source="xd1dRqiQvzqtv7HBqE77-65" target="59IasX3adQ8Y-ad1ousX-154">
          <mxGeometry relative="1" as="geometry" />
        </mxCell>
        <mxCell id="xd1dRqiQvzqtv7HBqE77-65" value="Tanggal_dibuat" style="ellipse;whiteSpace=wrap;html=1;align=center;fontFamily=Helvetica;fontSize=11;fontColor=default;labelBackgroundColor=default;" vertex="1" parent="1">
          <mxGeometry x="525" y="502.5" width="85" height="27.5" as="geometry" />
        </mxCell>
        <mxCell id="xd1dRqiQvzqtv7HBqE77-109" style="edgeStyle=none;rounded=0;orthogonalLoop=1;jettySize=auto;html=1;entryX=0;entryY=0.5;entryDx=0;entryDy=0;strokeColor=default;align=center;verticalAlign=middle;fontFamily=Helvetica;fontSize=11;fontColor=default;labelBackgroundColor=default;endArrow=none;endFill=0;" edge="1" parent="1" source="xd1dRqiQvzqtv7HBqE77-67" target="59IasX3adQ8Y-ad1ousX-154">
          <mxGeometry relative="1" as="geometry" />
        </mxCell>
        <mxCell id="xd1dRqiQvzqtv7HBqE77-67" value="Total_lagu" style="ellipse;whiteSpace=wrap;html=1;align=center;fontFamily=Helvetica;fontSize=11;fontColor=default;labelBackgroundColor=default;" vertex="1" parent="1">
          <mxGeometry x="547.5" y="530" width="70" height="20" as="geometry" />
        </mxCell>
        <mxCell id="xd1dRqiQvzqtv7HBqE77-110" style="edgeStyle=none;rounded=0;orthogonalLoop=1;jettySize=auto;html=1;entryX=0;entryY=0.5;entryDx=0;entryDy=0;strokeColor=default;align=center;verticalAlign=middle;fontFamily=Helvetica;fontSize=11;fontColor=default;labelBackgroundColor=default;endArrow=none;endFill=0;" edge="1" parent="1" source="xd1dRqiQvzqtv7HBqE77-70" target="59IasX3adQ8Y-ad1ousX-154">
          <mxGeometry relative="1" as="geometry" />
        </mxCell>
        <mxCell id="xd1dRqiQvzqtv7HBqE77-70" value="Total_durasi" style="ellipse;whiteSpace=wrap;html=1;align=center;dashed=1;fontFamily=Helvetica;fontSize=11;fontColor=default;labelBackgroundColor=default;" vertex="1" parent="1">
          <mxGeometry x="577.5" y="550" width="75" height="27.5" as="geometry" />
        </mxCell>
        <mxCell id="xd1dRqiQvzqtv7HBqE77-105" style="edgeStyle=none;rounded=0;orthogonalLoop=1;jettySize=auto;html=1;entryX=0;entryY=0.5;entryDx=0;entryDy=0;strokeColor=default;align=center;verticalAlign=middle;fontFamily=Helvetica;fontSize=11;fontColor=default;labelBackgroundColor=default;endArrow=none;endFill=0;" edge="1" parent="1" source="xd1dRqiQvzqtv7HBqE77-72" target="59IasX3adQ8Y-ad1ousX-154">
          <mxGeometry relative="1" as="geometry" />
        </mxCell>
        <mxCell id="xd1dRqiQvzqtv7HBqE77-72" value="Id" style="ellipse;whiteSpace=wrap;html=1;align=center;fontStyle=4;fontFamily=Helvetica;fontSize=11;fontColor=default;labelBackgroundColor=default;" vertex="1" parent="1">
          <mxGeometry x="617.49" y="442.5" width="47.51" height="17.5" as="geometry" />
        </mxCell>
        <mxCell id="xd1dRqiQvzqtv7HBqE77-75" value="" style="edgeStyle=none;rounded=0;orthogonalLoop=1;jettySize=auto;html=1;strokeColor=default;align=center;verticalAlign=middle;fontFamily=Helvetica;fontSize=11;fontColor=default;labelBackgroundColor=default;endArrow=none;endFill=0;" edge="1" parent="1" source="xd1dRqiQvzqtv7HBqE77-74" target="59IasX3adQ8Y-ad1ousX-109">
          <mxGeometry relative="1" as="geometry" />
        </mxCell>
        <mxCell id="xd1dRqiQvzqtv7HBqE77-74" value="Jumlah_plays" style="ellipse;whiteSpace=wrap;html=1;align=center;fontFamily=Helvetica;fontSize=11;fontColor=default;labelBackgroundColor=default;" vertex="1" parent="1">
          <mxGeometry x="905" y="785" width="75" height="30" as="geometry" />
        </mxCell>
        <mxCell id="xd1dRqiQvzqtv7HBqE77-77" style="edgeStyle=none;rounded=0;orthogonalLoop=1;jettySize=auto;html=1;strokeColor=default;align=center;verticalAlign=middle;fontFamily=Helvetica;fontSize=11;fontColor=default;labelBackgroundColor=default;endArrow=none;endFill=0;" edge="1" parent="1" source="xd1dRqiQvzqtv7HBqE77-76" target="59IasX3adQ8Y-ad1ousX-109">
          <mxGeometry relative="1" as="geometry" />
        </mxCell>
        <mxCell id="xd1dRqiQvzqtv7HBqE77-76" value="&lt;font style=&quot;font-size: 8px;&quot;&gt;Jumlah_downloads&lt;/font&gt;" style="ellipse;whiteSpace=wrap;html=1;align=center;fontFamily=Helvetica;fontSize=11;fontColor=default;labelBackgroundColor=default;" vertex="1" parent="1">
          <mxGeometry x="922.5" y="745" width="85" height="35" as="geometry" />
        </mxCell>
        <mxCell id="xd1dRqiQvzqtv7HBqE77-79" value="" style="edgeStyle=none;rounded=0;orthogonalLoop=1;jettySize=auto;html=1;strokeColor=default;align=center;verticalAlign=middle;fontFamily=Helvetica;fontSize=11;fontColor=default;labelBackgroundColor=default;endArrow=none;endFill=0;" edge="1" parent="1" source="xd1dRqiQvzqtv7HBqE77-78" target="59IasX3adQ8Y-ad1ousX-183">
          <mxGeometry relative="1" as="geometry" />
        </mxCell>
        <mxCell id="xd1dRqiQvzqtv7HBqE77-78" value="Tanggal_pembayaran" style="ellipse;whiteSpace=wrap;html=1;align=center;fontFamily=Helvetica;fontSize=11;fontColor=default;labelBackgroundColor=default;" vertex="1" parent="1">
          <mxGeometry x="770" y="1010" width="100" height="40" as="geometry" />
        </mxCell>
        <mxCell id="xd1dRqiQvzqtv7HBqE77-81" style="edgeStyle=none;rounded=0;orthogonalLoop=1;jettySize=auto;html=1;entryX=1;entryY=1;entryDx=0;entryDy=0;strokeColor=default;align=center;verticalAlign=middle;fontFamily=Helvetica;fontSize=11;fontColor=default;labelBackgroundColor=default;endArrow=none;endFill=0;" edge="1" parent="1" source="xd1dRqiQvzqtv7HBqE77-80" target="59IasX3adQ8Y-ad1ousX-183">
          <mxGeometry relative="1" as="geometry" />
        </mxCell>
        <mxCell id="xd1dRqiQvzqtv7HBqE77-80" value="Jumlah_dibayarkan" style="ellipse;whiteSpace=wrap;html=1;align=center;dashed=1;fontFamily=Helvetica;fontSize=11;fontColor=default;labelBackgroundColor=default;" vertex="1" parent="1">
          <mxGeometry x="896.4200000000001" y="1010" width="100" height="40" as="geometry" />
        </mxCell>
        <mxCell id="xd1dRqiQvzqtv7HBqE77-82" style="edgeStyle=none;rounded=0;orthogonalLoop=1;jettySize=auto;html=1;entryX=0.5;entryY=0;entryDx=0;entryDy=0;strokeColor=default;align=center;verticalAlign=middle;fontFamily=Helvetica;fontSize=11;fontColor=default;labelBackgroundColor=default;endArrow=none;endFill=0;" edge="1" parent="1" source="59IasX3adQ8Y-ad1ousX-136" target="59IasX3adQ8Y-ad1ousX-58">
          <mxGeometry relative="1" as="geometry" />
        </mxCell>
        <mxCell id="xd1dRqiQvzqtv7HBqE77-84" style="edgeStyle=none;rounded=0;orthogonalLoop=1;jettySize=auto;html=1;entryX=0.5;entryY=1;entryDx=0;entryDy=0;strokeColor=default;align=center;verticalAlign=middle;fontFamily=Helvetica;fontSize=11;fontColor=default;labelBackgroundColor=default;endArrow=none;endFill=0;" edge="1" parent="1" source="xd1dRqiQvzqtv7HBqE77-83" target="59IasX3adQ8Y-ad1ousX-80">
          <mxGeometry relative="1" as="geometry" />
        </mxCell>
        <mxCell id="xd1dRqiQvzqtv7HBqE77-83" value="Jenis" style="ellipse;whiteSpace=wrap;html=1;align=center;fontStyle=4;fontFamily=Helvetica;fontSize=11;fontColor=default;labelBackgroundColor=default;" vertex="1" parent="1">
          <mxGeometry x="200" y="470" width="60" height="32.5" as="geometry" />
        </mxCell>
        <mxCell id="xd1dRqiQvzqtv7HBqE77-97" style="edgeStyle=none;rounded=0;orthogonalLoop=1;jettySize=auto;html=1;entryX=1;entryY=0.5;entryDx=0;entryDy=0;entryPerimeter=0;strokeColor=default;align=center;verticalAlign=middle;fontFamily=Helvetica;fontSize=11;fontColor=default;labelBackgroundColor=default;endArrow=none;endFill=0;" edge="1" parent="1" source="59IasX3adQ8Y-ad1ousX-113" target="59IasX3adQ8Y-ad1ousX-115">
          <mxGeometry relative="1" as="geometry" />
        </mxCell>
        <mxCell id="xd1dRqiQvzqtv7HBqE77-103" value="" style="edgeStyle=none;rounded=0;orthogonalLoop=1;jettySize=auto;html=1;entryX=1;entryY=0.5;entryDx=0;entryDy=0;strokeColor=default;align=center;verticalAlign=middle;fontFamily=Helvetica;fontSize=11;fontColor=default;labelBackgroundColor=default;endArrow=none;endFill=0;shape=link;" edge="1" parent="1" source="59IasX3adQ8Y-ad1ousX-173" target="xd1dRqiQvzqtv7HBqE77-104">
          <mxGeometry relative="1" as="geometry">
            <mxPoint x="1500" y="358" as="sourcePoint" />
            <mxPoint x="1370" y="358" as="targetPoint" />
          </mxGeometry>
        </mxCell>
        <mxCell id="xd1dRqiQvzqtv7HBqE77-104" value="" style="shape=requiredInterface;html=1;verticalLabelPosition=bottom;sketch=0;fontFamily=Helvetica;fontSize=11;fontColor=default;labelBackgroundColor=default;" vertex="1" parent="1">
          <mxGeometry x="1435" y="348" width="10" height="20" as="geometry" />
        </mxCell>
        <mxCell id="xd1dRqiQvzqtv7HBqE77-111" value="Id" style="ellipse;whiteSpace=wrap;html=1;align=center;fontStyle=4;fontFamily=Helvetica;fontSize=11;fontColor=default;labelBackgroundColor=default;" vertex="1" parent="1">
          <mxGeometry x="245" y="617.5" width="50" height="22.5" as="geometry" />
        </mxCell>
        <mxCell id="xd1dRqiQvzqtv7HBqE77-112" value="1" style="text;html=1;align=center;verticalAlign=middle;resizable=0;points=[];autosize=1;strokeColor=none;fillColor=none;fontFamily=Helvetica;fontSize=11;fontColor=default;labelBackgroundColor=default;" vertex="1" parent="1">
          <mxGeometry x="275" y="380" width="30" height="30" as="geometry" />
        </mxCell>
        <mxCell id="xd1dRqiQvzqtv7HBqE77-113" value="N" style="text;html=1;align=center;verticalAlign=middle;resizable=0;points=[];autosize=1;strokeColor=none;fillColor=none;fontFamily=Helvetica;fontSize=11;fontColor=default;labelBackgroundColor=default;" vertex="1" parent="1">
          <mxGeometry x="380" y="315" width="30" height="30" as="geometry" />
        </mxCell>
        <mxCell id="xd1dRqiQvzqtv7HBqE77-114" value="N" style="text;html=1;align=center;verticalAlign=middle;resizable=0;points=[];autosize=1;strokeColor=none;fillColor=none;fontFamily=Helvetica;fontSize=11;fontColor=default;labelBackgroundColor=default;" vertex="1" parent="1">
          <mxGeometry x="460" y="360" width="30" height="30" as="geometry" />
        </mxCell>
        <mxCell id="xd1dRqiQvzqtv7HBqE77-115" value="M" style="text;html=1;align=center;verticalAlign=middle;resizable=0;points=[];autosize=1;strokeColor=none;fillColor=none;fontFamily=Helvetica;fontSize=11;fontColor=default;labelBackgroundColor=default;" vertex="1" parent="1">
          <mxGeometry x="810" y="670" width="30" height="30" as="geometry" />
        </mxCell>
        <mxCell id="xd1dRqiQvzqtv7HBqE77-117" value="M" style="text;html=1;align=center;verticalAlign=middle;resizable=0;points=[];autosize=1;strokeColor=none;fillColor=none;fontFamily=Helvetica;fontSize=11;fontColor=default;labelBackgroundColor=default;" vertex="1" parent="1">
          <mxGeometry x="850" y="670" width="30" height="30" as="geometry" />
        </mxCell>
        <mxCell id="xd1dRqiQvzqtv7HBqE77-118" value="N" style="text;html=1;align=center;verticalAlign=middle;resizable=0;points=[];autosize=1;strokeColor=none;fillColor=none;fontFamily=Helvetica;fontSize=11;fontColor=default;labelBackgroundColor=default;" vertex="1" parent="1">
          <mxGeometry x="725" y="513.75" width="30" height="30" as="geometry" />
        </mxCell>
        <mxCell id="xd1dRqiQvzqtv7HBqE77-119" value="N" style="text;html=1;align=center;verticalAlign=middle;resizable=0;points=[];autosize=1;strokeColor=none;fillColor=none;fontFamily=Helvetica;fontSize=11;fontColor=default;labelBackgroundColor=default;" vertex="1" parent="1">
          <mxGeometry x="720" y="450.63" width="30" height="30" as="geometry" />
        </mxCell>
        <mxCell id="xd1dRqiQvzqtv7HBqE77-120" value="1" style="text;html=1;align=center;verticalAlign=middle;resizable=0;points=[];autosize=1;strokeColor=none;fillColor=none;fontFamily=Helvetica;fontSize=11;fontColor=default;labelBackgroundColor=default;" vertex="1" parent="1">
          <mxGeometry x="720" y="360" width="30" height="30" as="geometry" />
        </mxCell>
        <mxCell id="xd1dRqiQvzqtv7HBqE77-121" value="N" style="text;html=1;align=center;verticalAlign=middle;resizable=0;points=[];autosize=1;strokeColor=none;fillColor=none;fontFamily=Helvetica;fontSize=11;fontColor=default;labelBackgroundColor=default;" vertex="1" parent="1">
          <mxGeometry x="890" y="670" width="30" height="30" as="geometry" />
        </mxCell>
        <mxCell id="xd1dRqiQvzqtv7HBqE77-122" value="1" style="text;html=1;align=center;verticalAlign=middle;resizable=0;points=[];autosize=1;strokeColor=none;fillColor=none;fontFamily=Helvetica;fontSize=11;fontColor=default;labelBackgroundColor=default;" vertex="1" parent="1">
          <mxGeometry x="890" y="530" width="30" height="30" as="geometry" />
        </mxCell>
        <mxCell id="xd1dRqiQvzqtv7HBqE77-123" value="N" style="text;html=1;align=center;verticalAlign=middle;resizable=0;points=[];autosize=1;strokeColor=none;fillColor=none;fontFamily=Helvetica;fontSize=11;fontColor=default;labelBackgroundColor=default;" vertex="1" parent="1">
          <mxGeometry x="1052.5" y="530" width="30" height="30" as="geometry" />
        </mxCell>
        <mxCell id="xd1dRqiQvzqtv7HBqE77-124" value="M" style="text;html=1;align=center;verticalAlign=middle;resizable=0;points=[];autosize=1;strokeColor=none;fillColor=none;fontFamily=Helvetica;fontSize=11;fontColor=default;labelBackgroundColor=default;" vertex="1" parent="1">
          <mxGeometry x="933.58" y="680" width="30" height="30" as="geometry" />
        </mxCell>
        <mxCell id="xd1dRqiQvzqtv7HBqE77-125" value="1" style="text;html=1;align=center;verticalAlign=middle;resizable=0;points=[];autosize=1;strokeColor=none;fillColor=none;fontFamily=Helvetica;fontSize=11;fontColor=default;labelBackgroundColor=default;" vertex="1" parent="1">
          <mxGeometry x="1220" y="530" width="30" height="30" as="geometry" />
        </mxCell>
        <mxCell id="xd1dRqiQvzqtv7HBqE77-126" value="N" style="text;html=1;align=center;verticalAlign=middle;resizable=0;points=[];autosize=1;strokeColor=none;fillColor=none;fontFamily=Helvetica;fontSize=11;fontColor=default;labelBackgroundColor=default;" vertex="1" parent="1">
          <mxGeometry x="1222.51" y="670" width="30" height="30" as="geometry" />
        </mxCell>
        <mxCell id="xd1dRqiQvzqtv7HBqE77-127" value="1" style="text;html=1;align=center;verticalAlign=middle;resizable=0;points=[];autosize=1;strokeColor=none;fillColor=none;fontFamily=Helvetica;fontSize=11;fontColor=default;labelBackgroundColor=default;" vertex="1" parent="1">
          <mxGeometry x="1220" y="740" width="30" height="30" as="geometry" />
        </mxCell>
        <mxCell id="xd1dRqiQvzqtv7HBqE77-128" value="N" style="text;html=1;align=center;verticalAlign=middle;resizable=0;points=[];autosize=1;strokeColor=none;fillColor=none;fontFamily=Helvetica;fontSize=11;fontColor=default;labelBackgroundColor=default;" vertex="1" parent="1">
          <mxGeometry x="1220" y="830" width="30" height="30" as="geometry" />
        </mxCell>
        <mxCell id="xd1dRqiQvzqtv7HBqE77-129" value="1" style="text;html=1;align=center;verticalAlign=middle;resizable=0;points=[];autosize=1;strokeColor=none;fillColor=none;fontFamily=Helvetica;fontSize=11;fontColor=default;labelBackgroundColor=default;" vertex="1" parent="1">
          <mxGeometry x="600" y="690" width="30" height="30" as="geometry" />
        </mxCell>
        <mxCell id="xd1dRqiQvzqtv7HBqE77-130" value="N" style="text;html=1;align=center;verticalAlign=middle;resizable=0;points=[];autosize=1;strokeColor=none;fillColor=none;fontFamily=Helvetica;fontSize=11;fontColor=default;labelBackgroundColor=default;" vertex="1" parent="1">
          <mxGeometry x="800" y="690" width="30" height="30" as="geometry" />
        </mxCell>
        <mxCell id="xd1dRqiQvzqtv7HBqE77-131" value="1" style="text;html=1;align=center;verticalAlign=middle;resizable=0;points=[];autosize=1;strokeColor=none;fillColor=none;fontFamily=Helvetica;fontSize=11;fontColor=default;labelBackgroundColor=default;" vertex="1" parent="1">
          <mxGeometry x="320" y="690" width="30" height="30" as="geometry" />
        </mxCell>
        <mxCell id="xd1dRqiQvzqtv7HBqE77-132" value="N" style="text;html=1;align=center;verticalAlign=middle;resizable=0;points=[];autosize=1;strokeColor=none;fillColor=none;fontFamily=Helvetica;fontSize=11;fontColor=default;labelBackgroundColor=default;" vertex="1" parent="1">
          <mxGeometry x="470" y="690" width="30" height="30" as="geometry" />
        </mxCell>
        <mxCell id="xd1dRqiQvzqtv7HBqE77-133" value="N" style="text;html=1;align=center;verticalAlign=middle;resizable=0;points=[];autosize=1;strokeColor=none;fillColor=none;fontFamily=Helvetica;fontSize=11;fontColor=default;labelBackgroundColor=default;" vertex="1" parent="1">
          <mxGeometry x="860" y="740" width="30" height="30" as="geometry" />
        </mxCell>
        <mxCell id="xd1dRqiQvzqtv7HBqE77-134" value="1" style="text;html=1;align=center;verticalAlign=middle;resizable=0;points=[];autosize=1;strokeColor=none;fillColor=none;fontFamily=Helvetica;fontSize=11;fontColor=default;labelBackgroundColor=default;" vertex="1" parent="1">
          <mxGeometry x="1560" y="377.5" width="30" height="30" as="geometry" />
        </mxCell>
      </root>
    </mxGraphModel>
  </diagram>
</mxfile>
